<?xml version="1.0" encoding="UTF-8"?>
<svg version="1.1" xmlns="http://www.w3.org/2000/svg" width="2000" height="500">
<path d="M0 0 C1.31790527 0.00346436 2.63581055 0.00692871 3.99365234 0.01049805 C13.44311755 0.11606237 22.0471499 0.93140039 31.1875 3.3125 C32.23035156 3.54066406 33.27320313 3.76882812 34.34765625 4.00390625 C51.64326922 7.90936724 69.23418939 16.24339326 83.1875 27.3125 C83.1875 27.9725 83.1875 28.6325 83.1875 29.3125 C84.5075 29.6425 85.8275 29.9725 87.1875 30.3125 C87.1875 30.9725 87.1875 31.6325 87.1875 32.3125 C87.78062988 32.5811084 88.37375977 32.8497168 88.98486328 33.12646484 C91.19716118 34.31770217 92.65667816 35.52363707 94.4296875 37.2890625 C95.01814453 37.87341064 95.60660156 38.45775879 96.21289062 39.05981445 C96.82326172 39.67945068 97.43363281 40.29908691 98.0625 40.9375 C98.69091797 41.57196045 99.31933594 42.2064209 99.96679688 42.86010742 C104.11338363 47.09606027 107.91518708 51.35668205 111.1875 56.3125 C111.66058594 56.99183594 112.13367188 57.67117187 112.62109375 58.37109375 C114.19003562 60.65726619 115.69381839 62.97651673 117.1875 65.3125 C118.00541016 66.55 118.00541016 66.55 118.83984375 67.8125 C132.33372915 89.35375924 137.418648 114.54638496 137.28515625 139.66796875 C137.28303383 141.20944328 137.28303383 141.20944328 137.28086853 142.78205872 C137.27533066 146.02140379 137.2627903 149.26067629 137.25 152.5 C137.24497695 154.7141917 137.24041546 156.9283845 137.23632812 159.14257812 C137.22538169 164.53257628 137.2087069 169.92253295 137.1875 175.3125 C137.79182861 175.59681885 138.39615723 175.8811377 139.01879883 176.17407227 C142.0318379 177.75572274 144.39309782 179.9576379 146.875 182.25 C147.39884277 182.73218994 147.92268555 183.21437988 148.46240234 183.71118164 C163.22578953 197.58696793 163.22578953 197.58696793 164.5234375 205.3125 C164.59271936 208.85973108 164.53886812 210.77193366 162.5625 213.8125 C159.40893997 215.80422213 157.87365523 215.89072043 154.1875 215.3125 C152.51457904 214.28301018 150.84248001 213.25187375 149.18652344 212.1953125 C146.65599713 211.0777767 144.70728412 211.11525976 141.953125 211.1875 C141.05883789 211.20554687 140.16455078 211.22359375 139.24316406 211.2421875 C138.56479492 211.26539063 137.88642578 211.28859375 137.1875 211.3125 C137.19026538 212.39063571 137.19026538 212.39063571 137.19308662 213.49055195 C137.23722422 230.96644602 137.27033636 248.44232596 137.29112434 265.91826344 C137.30144404 274.3694388 137.31551758 282.820577 137.33837891 291.27172852 C137.3582916 298.63635952 137.37121139 306.00096361 137.37567699 313.36562079 C137.37828797 317.26640795 137.38443924 321.16711811 137.39896011 325.06788063 C137.41251057 328.73760747 137.41672781 332.40722539 137.41371536 336.07697487 C137.41453001 338.06954968 137.4253049 340.06211256 137.43634033 342.05465698 C137.433591 343.23676254 137.43084167 344.4188681 137.42800903 345.63679504 C137.43077441 347.18125919 137.43077441 347.18125919 137.43359566 348.75692463 C137.1875 351.3125 137.1875 351.3125 135.1875 354.3125 C133.21015644 354.68854749 133.21015644 354.68854749 130.7303009 354.69002342 C129.7870354 354.69784666 128.84376989 354.70566991 127.87192059 354.71373022 C126.82855447 354.70703805 125.78518835 354.70034589 124.71020508 354.69345093 C123.60734822 354.6981309 122.50449137 354.70281087 121.36821461 354.70763266 C117.64770025 354.71966329 113.92754878 354.71009384 110.20703125 354.70068359 C107.54990553 354.70474572 104.89280538 354.70997641 102.23568726 354.71661377 C95.75282608 354.72998103 89.27006887 354.72706011 82.78720355 354.71837585 C77.52028723 354.71161143 72.25340013 354.71067718 66.98648071 354.7139473 C66.2379816 354.714407 65.48948249 354.71486669 64.71830159 354.71534032 C63.19792612 354.71629946 61.67755064 354.7172721 60.15717518 354.7182581 C45.88749088 354.72682076 31.61786431 354.71696416 17.34818947 354.700857 C5.09375103 354.68745301 -7.16060216 354.68978086 -19.41503906 354.70361328 C-33.63229559 354.71965367 -47.84950147 354.7259967 -62.06676579 354.71677649 C-63.58167075 354.7158208 -65.09657573 354.71487769 -66.61148071 354.7139473 C-67.35691909 354.71348447 -68.10235746 354.71302164 -68.87038487 354.71254479 C-74.13335932 354.70995027 -79.39630175 354.71433583 -84.65927124 354.72138596 C-91.06967757 354.72978407 -97.47997364 354.72755659 -103.89036727 354.71154372 C-107.16353233 354.70363805 -110.43647442 354.7022124 -113.70964432 354.71049118 C-117.25168455 354.71862713 -120.79319883 354.70848143 -124.33520508 354.69345093 C-125.3785712 354.70014309 -126.42193731 354.70683526 -127.49692059 354.71373022 C-128.44018609 354.70590697 -129.3834516 354.69808373 -130.3553009 354.69002342 C-131.17365323 354.68953637 -131.99200556 354.68904931 -132.83515644 354.68854749 C-133.48767982 354.56445182 -134.14020319 354.44035615 -134.8125 354.3125 C-137.09869871 350.88320193 -137.06022573 349.66731984 -137.05300903 345.63679504 C-137.05575836 344.45468948 -137.05850769 343.27258392 -137.06134033 342.05465698 C-137.05414978 340.75633942 -137.04695923 339.45802185 -137.03955078 338.12036133 C-137.03898669 336.7406261 -137.03930319 335.36089027 -137.04043579 333.9811554 C-137.04101039 330.23346624 -137.02923881 326.48590471 -137.01528788 322.73824525 C-137.00279833 318.82246689 -137.00161142 314.90668571 -136.99923706 310.9908905 C-136.99301706 303.57485859 -136.97659922 296.15888554 -136.95653808 288.74287957 C-136.93419524 280.30041542 -136.92318972 271.85794848 -136.91314721 263.41546214 C-136.89223344 246.04777403 -136.85704737 228.68014323 -136.8125 211.3125 C-138.57648341 211.25833354 -140.34094643 211.21963178 -142.10546875 211.1875 C-143.57922974 211.15269531 -143.57922974 211.15269531 -145.08276367 211.1171875 C-148.81737412 211.38439869 -150.85858796 213.11423988 -153.8125 215.3125 C-157.64216928 215.93775213 -159.27381494 215.60526362 -162.6875 213.75 C-164.8125 211.3125 -164.8125 211.3125 -165.375 208 C-164.69196497 203.52232589 -163.2727145 201.07970345 -160.8125 197.3125 C-160.1525 197.3125 -159.4925 197.3125 -158.8125 197.3125 C-158.43738281 196.21808594 -158.43738281 196.21808594 -158.0546875 195.1015625 C-156.70874967 192.07955116 -155.15887685 190.12682325 -152.9375 187.6875 C-152.25945312 186.93210937 -151.58140625 186.17671875 -150.8828125 185.3984375 C-148.95483364 183.45590786 -147.09856202 181.81422275 -144.8125 180.3125 C-144.1525 180.3125 -143.4925 180.3125 -142.8125 180.3125 C-142.4825 179.3225 -142.1525 178.3325 -141.8125 177.3125 C-141.13920654 176.94914551 -140.46591309 176.58579102 -139.7722168 176.21142578 C-137.42839678 173.94031178 -137.50096647 173.3275546 -137.37426758 170.16748047 C-137.38167908 168.42134726 -137.41074433 166.67522284 -137.45703125 164.9296875 C-137.46506271 164.00084747 -137.47309418 163.07200745 -137.48136902 162.11502075 C-137.51039483 159.13860381 -137.56656745 156.16347233 -137.625 153.1875 C-137.66770877 150.23311508 -137.70468422 147.27877124 -137.73649597 144.32424927 C-137.75793308 142.48648023 -137.7864141 140.64877474 -137.82319641 138.81124878 C-138.39050225 101.65590591 -122.98451842 66.26610824 -97.4375 39.6875 C-92.84083771 35.24014925 -87.82209569 31.27992729 -82.8125 27.3125 C-82.02746094 26.6834375 -81.24242188 26.054375 -80.43359375 25.40625 C-79.73363281 24.8596875 -79.03367187 24.313125 -78.3125 23.75 C-77.7040625 23.27433594 -77.095625 22.79867187 -76.46875 22.30859375 C-74.8125 21.3125 -74.8125 21.3125 -71.8125 21.3125 C-71.8125 20.6525 -71.8125 19.9925 -71.8125 19.3125 C-47.08727481 6.6674927 -47.08727481 6.6674927 -36.80859375 4.70703125 C-34.58065007 4.30234109 -34.58065007 4.30234109 -31.5625 3.3125 C-21.1464447 0.53488525 -10.73730775 -0.04605042 0 0 Z M-13.8125 16.3125 C-15.06740234 16.47878906 -15.06740234 16.47878906 -16.34765625 16.6484375 C-31.20002852 18.81398284 -44.70799239 23.0204756 -57.8125 30.3125 C-58.81796875 30.83457031 -58.81796875 30.83457031 -59.84375 31.3671875 C-81.80363064 43.07221822 -101.31815763 64.33187586 -110.8125 87.3125 C-110.8125 88.3025 -110.8125 89.2925 -110.8125 90.3125 C-111.4725 90.3125 -112.1325 90.3125 -112.8125 90.3125 C-113.84752777 93.57901375 -114.86303935 96.85127363 -115.875 100.125 C-116.31682617 101.5181543 -116.31682617 101.5181543 -116.76757812 102.93945312 C-117.04150391 103.83212891 -117.31542969 104.72480469 -117.59765625 105.64453125 C-117.85426025 106.46671143 -118.11086426 107.2888916 -118.37524414 108.13598633 C-119.03331242 110.47820905 -119.03331242 110.47820905 -117.8125 113.3125 C-114.54330103 112.71496627 -111.51128495 111.8996005 -108.375 110.8125 C-94.89343091 106.75202741 -80.68877621 107.75802791 -67.8125 113.3125 C-67.52117187 112.56226563 -67.22984375 111.81203125 -66.9296875 111.0390625 C-61.79998028 98.2309256 -57.04285283 88.88317122 -44.125 83 C-35.89092779 79.97239499 -27.12689526 79.35414445 -18.71484375 81.9375 C-16.45857398 82.38226776 -14.98140363 82.00809493 -12.8125 81.3125 C-13.988125 80.94125 -13.988125 80.94125 -15.1875 80.5625 C-18.26705085 79.09604721 -18.48269235 78.32673068 -19.8125 75.3125 C-20.44542969 74.71566406 -21.07835937 74.11882812 -21.73046875 73.50390625 C-26.09493115 68.91016627 -28.00038842 62.01452527 -28.3125 55.75 C-27.86439915 47.65527504 -24.23073114 40.82566792 -18.73828125 35.00390625 C-13.00627367 29.96950608 -6.95779366 28.62535235 0.5 28.0625 C7.55753306 28.54097682 12.85673305 30.62788662 18.1875 35.3125 C18.8475 35.3125 19.5075 35.3125 20.1875 35.3125 C20.435 35.828125 20.6825 36.34375 20.9375 36.875 C22.28189219 39.49656477 23.76557521 42.00817204 25.28515625 44.53125 C28.51034557 50.8978575 28.28429886 59.88589493 26.125 66.5625 C23.27262473 73.05131578 17.83862648 78.20258983 12.1875 82.3125 C14.0128125 82.0959375 14.0128125 82.0959375 15.875 81.875 C16.90173828 81.75318359 16.90173828 81.75318359 17.94921875 81.62890625 C19.52283459 81.40645794 21.08865542 81.12481898 22.64453125 80.80078125 C33.09597674 78.79397528 42.68225015 81.02881423 51.578125 86.88671875 C59.86573758 93.67180615 63.99852517 102.27660864 67.1875 112.3125 C70.42308654 111.80240753 73.6148175 111.21958489 76.81640625 110.5234375 C89.58434108 107.75497514 100.00274401 108.17690534 112.5078125 112.47265625 C115.1965805 113.46203346 115.1965805 113.46203346 118.1875 113.3125 C117.82333747 105.89056834 116.21951738 99.64248259 113.5 92.75 C113.00983398 91.42838867 113.00983398 91.42838867 112.50976562 90.08007812 C110.12574682 83.90350933 107.06940646 78.66256756 103.1875 73.3125 C102.42824219 72.26320312 101.66898438 71.21390625 100.88671875 70.1328125 C99.53342452 68.31966101 98.17924202 66.50717219 96.82421875 64.6953125 C95.1875 62.3125 95.1875 62.3125 94.1875 59.3125 C92.5478279 57.94610658 90.87639872 56.6175581 89.1875 55.3125 C87.0044462 53.18689498 84.85373346 51.04856529 82.80859375 48.7890625 C78.94562534 44.66469022 74.68760596 41.30486131 70.125 38 C69.53533447 37.56727783 68.94566895 37.13455566 68.33813477 36.6887207 C64.7489623 34.1440721 61.48220668 32.49566881 57.1875 31.3125 C57.1875 30.6525 57.1875 29.9925 57.1875 29.3125 C54.86374258 28.28572347 52.53047165 27.29427944 50.1875 26.3125 C49.32253906 25.93738281 48.45757812 25.56226563 47.56640625 25.17578125 C40.60310688 22.30534445 33.62587377 20.26950825 26.3125 18.5 C25.42095215 18.28102051 24.5294043 18.06204102 23.61083984 17.83642578 C18.68899845 16.69067354 14.27284111 16.13646896 9.1875 16.3125 C8.23875 16.1475 7.29 15.9825 6.3125 15.8125 C-0.43719561 14.7325487 -7.08224465 15.28076745 -13.8125 16.3125 Z M-8.9375 46.5625 C-12.01722581 51.07943119 -13.47370811 53.6922311 -12.8125 59.3125 C-11.43194817 62.88700987 -9.83016256 65.67989895 -6.5 67.75 C-0.41861781 69.02284743 3.87635012 68.64740807 9.1875 65.3125 C11.4648501 62.49740007 11.4648501 62.49740007 11.1875 59.3125 C11.8475 59.3125 12.5075 59.3125 13.1875 59.3125 C13.67061017 56.09176556 13.5935262 53.98189455 11.88671875 51.16796875 C10.09078071 48.78910094 8.29824387 46.42324387 6.1875 44.3125 C-1.83916774 43.43923969 -1.83916774 43.43923969 -8.9375 46.5625 Z M5.1875 83.3125 C4.1975 83.8075 4.1975 83.8075 3.1875 84.3125 C1.31370395 84.38283769 -0.56251102 84.3968022 -2.4375 84.375 C-3.44039062 84.36597656 -4.44328125 84.35695313 -5.4765625 84.34765625 C-6.24742187 84.33605469 -7.01828125 84.32445312 -7.8125 84.3125 C-5.14002366 86.65537418 -5.14002366 86.65537418 -1.8125 87.3125 C-1.8125 87.9725 -1.8125 88.6325 -1.8125 89.3125 C2.50142226 88.8331753 4.35319547 87.5667015 7.1875 84.3125 C6.5275 83.9825 5.8675 83.6525 5.1875 83.3125 Z M-44.125 100.375 C-50.46465809 107.30439373 -53.02187127 114.95061309 -52.8125 124.3125 C-52.37402783 126.54050077 -52.37402783 126.54050077 -51.8125 128.3125 C-51.1525 128.3125 -50.4925 128.3125 -49.8125 128.3125 C-49.70164062 129.03953125 -49.59078125 129.7665625 -49.4765625 130.515625 C-46.76448399 141.93826156 -36.40465717 151.87544118 -28.27734375 159.77734375 C-20.62764363 167.26151713 -20.62764363 167.26151713 -18.5625 170.625 C-16.43297925 173.89533544 -13.83010261 175.86069788 -10.8125 178.3125 C-9.45005204 179.95545195 -8.11385125 181.62074337 -6.8125 183.3125 C-5.7296875 184.3953125 -5.7296875 184.3953125 -4.625 185.5 C-2.8125 187.3125 -2.8125 187.3125 -1.8125 189.3125 C2.22839147 188.7960632 3.74141858 186.91570699 6.3125 183.875 C9.52757512 180.1681453 12.81331296 176.62801165 16.3125 173.1875 C19.81593333 169.72179595 23.13940769 166.18659738 26.33984375 162.44140625 C28.59039782 159.84827312 30.92126349 157.33558709 33.25 154.8125 C42.06159851 145.12107471 51.01499793 134.47418463 52.5625 121.0625 C51.64784517 111.91595173 48.07860328 104.43443685 41.1875 98.3125 C35.76410164 95.02991678 28.59958654 94.82818232 22.5 96.0625 C18.79086004 97.01256041 15.53169335 98.42603196 12.1875 100.3125 C13.06923694 103.10466698 13.97651067 105.84215225 15.17578125 108.515625 C20.61933378 120.78836161 19.8970239 132.63253801 15.1171875 145.10546875 C12.0349761 151.68833747 8.01909826 159.80991245 1 162.5625 C-2.24065712 162.27444159 -3.42377981 161.44528588 -5.8125 159.3125 C-6.4725 159.3125 -7.1325 159.3125 -7.8125 159.3125 C-8.3075 157.3325 -8.3075 157.3325 -8.8125 155.3125 C-9.4725 155.3125 -10.1325 155.3125 -10.8125 155.3125 C-10.92722656 154.75820312 -11.04195312 154.20390625 -11.16015625 153.6328125 C-11.91009703 150.96535846 -13.02846271 148.67407147 -14.25 146.1875 C-19.78499583 134.12568828 -20.38341207 122.55624237 -15.98046875 110.0390625 C-14.8125 107.3125 -14.8125 107.3125 -13.17578125 104.5859375 C-11.64107365 102.46843554 -11.64107365 102.46843554 -11.8125 100.3125 C-23.43022289 95.09786447 -32.80786543 93.32848225 -44.125 100.375 Z M-1.8125 113.3125 C-5.114467 122.5992822 -4.57114215 131.25148766 -0.8125 140.3125 C3.84139853 136.28337141 3.9865307 130.60355007 4.5 124.75 C4.11065259 120.46717852 2.85364373 117.26959137 1.1875 113.3125 C0.1975 113.3125 -0.7925 113.3125 -1.8125 113.3125 Z M-98.8125 124.3125 C-98.4825 125.3025 -98.1525 126.2925 -97.8125 127.3125 C-97.1525 127.3125 -96.4925 127.3125 -95.8125 127.3125 C-95.565 127.97765625 -95.3175 128.6428125 -95.0625 129.328125 C-93.81393945 132.30906331 -92.3878512 135.12179868 -90.89355469 137.98388672 C-87.94218942 143.65866629 -85.2712864 148.868848 -84.2265625 155.234375 C-81.88212507 167.00079681 -74.80164374 177.71509634 -65.375 184.9375 C-52.11756429 193.76253967 -36.31110742 195.63372001 -20.8125 193.3125 C-20.8125 188.40413893 -24.50543853 185.69909001 -27.8125 182.3125 C-28.898481 181.35399307 -30.00073057 180.41329542 -31.125 179.5 C-33.8125 177.3125 -33.8125 177.3125 -35.8125 174.3125 C-36.4725 174.3125 -37.1325 174.3125 -37.8125 174.3125 C-38.06902344 173.73628906 -38.32554687 173.16007812 -38.58984375 172.56640625 C-39.9315778 170.09298597 -41.46509477 168.31424101 -43.375 166.25 C-61.80101367 145.82115875 -61.80101367 145.82115875 -65.1875 133.8125 C-67.21850186 129.43803446 -68.95806825 128.66339823 -73.35546875 127.05078125 C-81.21352372 124.68961688 -90.74214692 121.85630558 -98.8125 124.3125 Z M66.3984375 131.2109375 C65.16633518 133.3492312 64.3888666 135.34390929 63.625 137.6875 C59.21797745 149.09193241 50.40491982 158.50255275 42.1875 167.3125 C41.14170763 168.53815838 40.09991596 169.76724363 39.0625 171 C36.63635433 173.81409737 34.06829708 176.43842379 31.41796875 179.0390625 C30.73557129 179.70977783 30.05317383 180.38049316 29.35009766 181.0715332 C27.96211501 182.42869689 26.56734186 183.77895419 25.16552734 185.12182617 C24.20380615 186.06119019 24.20380615 186.06119019 23.22265625 187.01953125 C22.34685913 187.86221558 22.34685913 187.86221558 21.45336914 188.72192383 C19.8761421 190.36492072 19.8761421 190.36492072 20.1875 193.3125 C39.21450294 195.41255485 54.21111594 192.54015089 70 181.3125 C72.2594706 179.24669831 72.86720296 178.30193905 73.1875 175.3125 C73.8475 175.3125 74.5075 175.3125 75.1875 175.3125 C80.01189786 169.73413185 81.83321109 162.76706117 83.75 155.8125 C86.33684665 146.55747091 89.19508581 138.71675341 94.9375 130.9375 C97.42646016 127.92091602 97.42646016 127.92091602 98.1875 124.3125 C87.8418141 123.70788199 74.15325464 122.98202673 66.3984375 131.2109375 Z M-120.8125 130.3125 C-122.00225795 133.88177385 -121.93728155 137.11196972 -121.91015625 140.82421875 C-121.9087413 141.55244339 -121.90732635 142.28066803 -121.90586853 143.03096008 C-121.90027659 145.35401539 -121.88772562 147.67697388 -121.875 150 C-121.86998396 151.57617048 -121.86542123 153.15234248 -121.86132812 154.72851562 C-121.8503098 158.58988098 -121.83305074 162.45117408 -121.8125 166.3125 C-118.34308454 165.85427532 -115.13854951 165.42118317 -111.8125 164.3125 C-109.58752379 163.93289634 -107.35763808 163.58157991 -105.125 163.25 C-103.94550781 163.07339844 -102.76601562 162.89679688 -101.55078125 162.71484375 C-100.19533203 162.51568359 -100.19533203 162.51568359 -98.8125 162.3125 C-99.29826735 156.27414193 -100.58187958 151.64421179 -103.3125 146.25 C-103.66344727 145.55189209 -104.01439453 144.85378418 -104.37597656 144.13452148 C-107.4051349 138.4505127 -110.98960538 134.30056435 -116.8125 131.3125 C-118.97495642 130.64557076 -118.97495642 130.64557076 -120.8125 130.3125 Z M109.1875 137.3125 C103.09092999 143.43634772 98.1875 153.58815499 98.1875 162.3125 C100.89577004 162.79202665 103.60411344 163.27113231 106.3125 163.75 C107.07304687 163.88470703 107.83359375 164.01941406 108.6171875 164.15820312 C109.36484375 164.29033203 110.1125 164.42246094 110.8828125 164.55859375 C111.9039917 164.73926392 111.9039917 164.73926392 112.94580078 164.92358398 C115.69076689 165.39981259 118.43943545 165.85448924 121.1875 166.3125 C121.1875 154.4325 121.1875 142.5525 121.1875 130.3125 C116.08652497 130.3125 112.86535123 134.02577531 109.1875 137.3125 Z M-133.8125 191.3125 C-133.8125 191.9725 -133.8125 192.6325 -133.8125 193.3125 C-134.4725 193.6425 -135.1325 193.9725 -135.8125 194.3125 C-132.88519931 196.29551015 -130.10595803 197.59990737 -126.75 198.625 C-121.81174277 200.18617949 -117.35786156 202.45755756 -112.7578125 204.81640625 C-106.08929704 208.62369181 -106.08929704 208.62369181 -98.8125 210.3125 C-98.8125 210.9725 -98.8125 211.6325 -98.8125 212.3125 C-96.48140803 213.31806908 -94.14793981 214.31714623 -91.8125 215.3125 C-90.905 215.704375 -89.9975 216.09625 -89.0625 216.5 C-86.74092428 217.48232223 -86.74092428 217.48232223 -83.8125 217.3125 C-83.8125 217.9725 -83.8125 218.6325 -83.8125 219.3125 C-79.51844581 218.83538287 -77.70392255 216.33840732 -74.8125 213.3125 C-73.08327189 211.79358342 -71.32633282 210.31364006 -69.55859375 208.83984375 C-67.55031165 207.08315851 -65.68225541 205.21498636 -63.8125 203.3125 C-64.56273438 202.92320312 -65.31296875 202.53390625 -66.0859375 202.1328125 C-75.45079628 197.01398541 -87.26424576 188.95726272 -90.8125 178.3125 C-105.5639447 175.06718217 -122.24924162 182.38724734 -133.8125 191.3125 Z M91.1875 178.3125 C89.16475145 180.69943104 87.48395255 183.18474272 85.79296875 185.81640625 C80.66246357 193.79303109 71.75037739 199.48173906 63.1875 203.3125 C63.8475 203.6425 64.5075 203.9725 65.1875 204.3125 C65.1875 204.9725 65.1875 205.6325 65.1875 206.3125 C66.074375 206.704375 66.96125 207.09625 67.875 207.5 C71.36529486 209.40978398 73.49179959 211.40943802 76.1875 214.3125 C77.5796875 215.7046875 77.5796875 215.7046875 79 217.125 C79.721875 217.846875 80.44375 218.56875 81.1875 219.3125 C85.89600456 217.87821707 90.19501864 215.92637473 94.5625 213.6875 C95.25730469 213.33703613 95.95210938 212.98657227 96.66796875 212.62548828 C100.19823886 210.843656 103.71646041 209.03994834 107.2265625 207.21875 C116.32768052 202.53287085 125.52948569 198.70307949 135.1875 195.3125 C133.37897035 191.17374946 131.09378784 189.59116791 127.1875 187.3125 C126.5275 187.3125 125.8675 187.3125 125.1875 187.3125 C125.1875 186.6525 125.1875 185.9925 125.1875 185.3125 C108.59678461 177.58001297 108.59678461 177.58001297 91.1875 178.3125 Z M16.1875 208.3125 C16.8475 209.9625 17.5075 211.6125 18.1875 213.3125 C19.1775 213.3125 20.1675 213.3125 21.1875 213.3125 C19.8321674 210.77576712 19.8321674 210.77576712 18.1875 208.3125 C17.5275 208.3125 16.8675 208.3125 16.1875 208.3125 Z M-17.8125 209.3125 C-17.8125 212.3125 -17.8125 212.3125 -17.8125 212.3125 Z M38.1875 211.3125 C41.34359901 217.48123897 45.71354138 220.03190094 52.1875 222.3125 C55.52781208 222.92973158 58.79358135 223.23306786 62.1875 223.3125 C55.5901532 215.86388264 47.94121789 212.67679874 38.1875 211.3125 Z M-61.8125 221.3125 C-62.1425 221.9725 -62.4725 222.6325 -62.8125 223.3125 C-55.79747424 224.10966202 -49.90211265 221.71527111 -43.8125 218.3125 C-41.36143696 216.11154543 -39.72692216 214.02459806 -37.8125 211.3125 C-46.58963206 211.3125 -54.75017841 216.55460477 -61.8125 221.3125 Z M-19.8125 212.3125 C-20.1425 212.9725 -20.4725 213.6325 -20.8125 214.3125 C-20.1525 214.3125 -19.4925 214.3125 -18.8125 214.3125 C-19.1425 213.6525 -19.4725 212.9925 -19.8125 212.3125 Z M-0.8125 214.3125 C-13.0608583 232.21394675 -18.79414293 247.41986803 -16.8125 269.3125 C-15.69698351 273.72548325 -14.09923556 277.39330732 -11.8125 281.3125 C-11.40902344 282.06144531 -11.00554687 282.81039062 -10.58984375 283.58203125 C-9.70828761 285.18399886 -8.76883933 286.75402109 -7.8125 288.3125 C-7.1525 288.3125 -6.4925 288.3125 -5.8125 288.3125 C-5.544375 288.910625 -5.27625 289.50875 -5 290.125 C-3.82756533 292.28474808 -2.61880718 293.67040256 -0.8125 295.3125 C3.02408866 293.81860707 4.64935426 291.67626981 6.9375 288.3125 C7.55109375 287.425625 8.1646875 286.53875 8.796875 285.625 C10.35928234 283.47657687 10.35928234 283.47657687 10.1875 281.3125 C10.8475 281.3125 11.5075 281.3125 12.1875 281.3125 C17.9167543 263.59178322 19.46037958 248.58515051 11.4375 231.25 C6.63252704 221.47547625 6.63252704 221.47547625 -0.8125 214.3125 Z M-21.8125 215.3125 C-20.8125 217.3125 -20.8125 217.3125 -20.8125 217.3125 Z M-121.8125 217.3125 C-121.83797651 224.12604977 -121.85541982 230.93958712 -121.86743164 237.75317383 C-121.87244235 240.06828266 -121.87925271 242.38338837 -121.88793945 244.69848633 C-121.90014842 248.03728004 -121.90576108 251.37603169 -121.91015625 254.71484375 C-121.91531754 255.74020737 -121.92047882 256.76557098 -121.92579651 257.82200623 C-121.9267613 270.3442774 -120.98848143 283.57181983 -112.625 293.62890625 C-105.61611144 300.13931782 -95.87420663 302.54222176 -86.50097656 302.23730469 C-75.72219725 301.5909949 -65.073493 300.03071514 -54.4765625 297.99609375 C-45.01734844 296.23131501 -36.32527763 295.69712267 -26.8125 297.3125 C-24.8634375 297.5909375 -24.8634375 297.5909375 -22.875 297.875 C-21.864375 298.019375 -20.85375 298.16375 -19.8125 298.3125 C-21.2992146 294.3454744 -23.1813339 290.7276143 -25.1875 287 C-29.13472626 279.42617612 -31.07300504 271.63182371 -32.8125 263.3125 C-33.84503906 263.69921875 -34.87757813 264.0859375 -35.94140625 264.484375 C-46.74496213 268.38012296 -57.3918447 270.69366629 -68.73046875 272.453125 C-75.83622006 273.58750838 -81.76478523 275.32100825 -87.8125 279.3125 C-88.1425 280.3025 -88.4725 281.2925 -88.8125 282.3125 C-95.63434423 284.81384288 -95.63434423 284.81384288 -99.75 283.0625 C-101.8125 281.3125 -101.8125 281.3125 -102.8125 279.3125 C-103.15106426 264.63332108 -98.51047918 249.65737067 -91.94921875 236.68359375 C-90.66840121 234.45017106 -90.66840121 234.45017106 -90.8125 232.3125 C-91.32522461 232.07128418 -91.83794922 231.83006836 -92.36621094 231.58154297 C-94.76566684 230.45166035 -97.16408134 229.31958263 -99.5625 228.1875 C-100.36816406 227.80851563 -101.17382812 227.42953125 -102.00390625 227.0390625 C-108.65702539 223.89585661 -115.24145676 220.62352373 -121.8125 217.3125 Z M-22.8125 217.3125 C-23.25078125 217.9415625 -23.6890625 218.570625 -24.140625 219.21875 C-31.51806648 229.17529704 -40.59879037 235.75121947 -52.8125 238.3125 C-53.64007813 238.49683594 -54.46765625 238.68117188 -55.3203125 238.87109375 C-61.19773196 239.9120787 -66.97821837 239.42379174 -72.8125 238.3125 C-73.8025 238.3125 -74.7925 238.3125 -75.8125 238.3125 C-76.65634675 239.72292956 -77.48719496 241.14114132 -78.3125 242.5625 C-78.7765625 243.35140625 -79.240625 244.1403125 -79.71875 244.953125 C-81.09288776 247.48390893 -81.09288776 247.48390893 -80.8125 251.3125 C-81.8025 251.8075 -81.8025 251.8075 -82.8125 252.3125 C-83.21979228 254.63406597 -83.55688677 256.9693787 -83.8125 259.3125 C-78.272586 258.77637929 -72.91599861 257.99245257 -67.47265625 256.83984375 C-64.63706818 256.27772277 -61.79718841 255.85881003 -58.9375 255.4375 C-48.85257431 253.73939555 -39.59996111 251.44026988 -32.8125 243.3125 C-30.9748762 239.96916426 -30.9748762 239.96916426 -29.8125 236.3125 C-29.1812512 234.82705068 -28.53449554 233.34812605 -27.875 231.875 C-27.54242188 231.1221875 -27.20984375 230.369375 -26.8671875 229.59375 C-25.81286995 227.31330019 -24.66829933 225.09879734 -23.5 222.875 C-22.943125 221.699375 -22.38625 220.52375 -21.8125 219.3125 C-22.3075 218.3225 -22.3075 218.3225 -22.8125 217.3125 Z M111.25 222.5 C104.67186077 226.0421821 98.05591184 229.36041802 91.1875 232.3125 C91.96275003 236.09534651 93.48725537 239.45749675 95 243 C99.57499945 254.16139727 104.46375966 268.13143477 102.1875 280.3125 C100.47260497 282.50834293 99.44388997 283.21804054 96.8125 284.1875 C93.30287702 284.3546249 91.98255685 283.40879264 89.1875 281.3125 C88.341875 280.425625 87.49625 279.53875 86.625 278.625 C84.2638442 275.85365971 84.2638442 275.85365971 80.1875 276.3125 C79.8575 275.6525 79.5275 274.9925 79.1875 274.3125 C76.64122757 273.63847598 76.64122757 273.63847598 73.52734375 273.19921875 C72.34769043 273.00553711 71.16803711 272.81185547 69.95263672 272.61230469 C68.6895166 272.41024414 67.42639648 272.20818359 66.125 272 C42.67868911 268.05809456 42.67868911 268.05809456 33.1875 263.3125 C32.9915625 264.2096875 32.795625 265.106875 32.59375 266.03125 C30.13180428 276.30350627 26.16865965 285.02942974 21.1875 294.3125 C20.5149178 295.64285913 19.84466494 296.97445798 19.1875 298.3125 C21.31284659 298.17180804 23.43777529 298.02479079 25.5625 297.875 C26.74585938 297.79378906 27.92921875 297.71257812 29.1484375 297.62890625 C32.10268901 297.50165064 32.10268901 297.50165064 34.1875 296.3125 C45.85037653 295.5719999 57.53759648 298.18144713 68.9375 300.4375 C82.25061232 302.87307714 97.41764583 304.27685859 109.1875 296.3125 C112.1489968 293.85492578 112.1489968 293.85492578 114.1875 291.3125 C114.1875 290.6525 114.1875 289.9925 114.1875 289.3125 C114.8475 289.3125 115.5075 289.3125 116.1875 289.3125 C116.83827296 287.27240245 117.48289824 285.23034331 118.125 283.1875 C118.66447266 281.48207031 118.66447266 281.48207031 119.21484375 279.7421875 C121.25336798 272.55413819 121.31977736 265.77358613 121.28515625 258.3515625 C121.2837413 257.20585785 121.28232635 256.0601532 121.28086853 254.87973022 C121.2752858 251.23229322 121.26273641 247.58491835 121.25 243.9375 C121.24498277 241.45963631 121.24042025 238.98177165 121.23632812 236.50390625 C121.22532201 230.44008309 121.20860103 224.37629598 121.1875 218.3125 C117.54947875 218.3125 114.39339815 220.78532712 111.25 222.5 Z M23.1875 219.3125 C24.77468093 224.24605254 26.57979672 229.06398741 28.5 233.875 C28.78294922 234.61685547 29.06589844 235.35871094 29.35742188 236.12304688 C32.3108489 243.47714565 36.89542855 248.06433222 44.1875 251.3125 C52.54752178 254.52246617 60.70955383 255.95913483 69.55859375 256.8203125 C73.1875 257.3125 73.1875 257.3125 76.34765625 258.3671875 C79.16171705 259.30391751 81.24889794 259.48535894 84.1875 259.3125 C82.09725469 251.94475589 79.63933052 245.15690215 76.1875 238.3125 C74.90875 238.4775 73.63 238.6425 72.3125 238.8125 C70.60497192 238.9872238 68.89657652 239.15363532 67.1875 239.3125 C66.06794922 239.43238281 66.06794922 239.43238281 64.92578125 239.5546875 C52.99873015 240.24317602 39.18348034 235.07502782 30.1875 227.3125 C29.1710964 225.65578593 28.16756395 223.99096729 27.1875 222.3125 C26.5275 222.3125 25.8675 222.3125 25.1875 222.3125 C24.8575 221.3225 24.5275 220.3325 24.1875 219.3125 C23.8575 219.3125 23.5275 219.3125 23.1875 219.3125 Z M-121.8125 306.3125 C-121.8125 317.2025 -121.8125 328.0925 -121.8125 339.3125 C-84.1925 339.3125 -46.5725 339.3125 -7.8125 339.3125 C-7.8125 331.52656981 -8.1403843 326.31528015 -13.4609375 320.515625 C-15.18292308 318.99666829 -16.93680444 317.63526943 -18.8125 316.3125 C-19.6375 315.714375 -20.4625 315.11625 -21.3125 314.5 C-26.80841846 311.88943873 -33.08422726 312.14744116 -39.0625 312.1875 C-39.81120361 312.19160889 -40.55990723 312.19571777 -41.33129883 312.19995117 C-49.46675792 312.28145475 -57.035664 312.8444676 -64.9375 314.875 C-71.77942415 316.41140553 -78.43540836 316.64565483 -85.4375 316.6875 C-86.47406738 316.70111572 -87.51063477 316.71473145 -88.57861328 316.72875977 C-101.30713204 316.65523691 -111.31386052 313.31159299 -121.8125 306.3125 Z M117.25 309.0625 C109.79638444 314.53862572 100.53476176 316.43465214 91.4140625 316.4453125 C90.3415625 316.44660156 89.2690625 316.44789063 88.1640625 316.44921875 C87.05804688 316.44535156 85.95203125 316.44148438 84.8125 316.4375 C83.16507813 316.44330078 83.16507813 316.44330078 81.484375 316.44921875 C74.37908582 316.44069922 67.61590214 316.30985335 60.75 314.3125 C53.60190055 312.30601594 46.49309652 312.19852342 39.125 312.125 C37.99130981 312.10542236 37.99130981 312.10542236 36.8347168 312.08544922 C27.81046127 312.07170919 19.96287875 314.05334059 13.1875 320.3125 C8.66990307 326.63284345 8.07058051 331.36477543 7.1875 339.3125 C44.8075 339.3125 82.4275 339.3125 121.1875 339.3125 C121.1875 328.7525 121.1875 318.1925 121.1875 307.3125 C118.99973008 307.08907125 118.99973008 307.08907125 117.25 309.0625 Z " fill="#66704E" transform="translate(190.8125,72.6875)"/>
<path d="M0 0 C11.58852534 -0.0931934 23.17695969 -0.1640133 34.76578522 -0.20724869 C40.14851741 -0.22801259 45.53099087 -0.25612267 50.91357422 -0.30175781 C56.12020872 -0.34561867 61.32659632 -0.369221 66.53340149 -0.37950897 C68.5074705 -0.38682882 70.48152791 -0.40111984 72.45549011 -0.42292023 C93.85562432 -0.64959405 111.79024691 2.89423341 128 18 C139.59807025 30.22884249 143.81372289 44.37053393 144 61 C143.15269551 76.17616486 136.08775745 89.48835805 125.08984375 99.7890625 C123.76683433 100.9087726 122.39085606 101.9657737 121 103 C122.1210613 105.9471199 123.36629674 108.79839055 124.7421875 111.6328125 C151 166.45867422 151 166.45867422 151 188 C136.48 188 121.96 188 107 188 C103.64230769 179.04615385 103.64230769 179.04615385 102.7109375 175.6875 C99.99008743 166.13490588 96.95184461 156.75297107 93.5 147.4375 C93.14470215 146.46361328 92.7894043 145.48972656 92.42333984 144.48632812 C88.11262197 133.04567118 83.25871032 125.29104911 75 116 C63.78 115.67 52.56 115.34 41 115 C41 139.09 41 163.18 41 188 C27.14 188 13.28 188 -1 188 C-1.02255963 164.07846174 -1.04098656 140.15693208 -1.05181217 116.23538589 C-1.05697193 105.12859975 -1.06400858 94.02182067 -1.07543945 82.91503906 C-1.08539602 73.23616524 -1.09185576 63.55729653 -1.09408849 53.87841773 C-1.09539394 48.75192872 -1.09846936 43.62545436 -1.10573006 38.49897003 C-1.11250559 33.67607333 -1.11461382 28.85319734 -1.11310768 24.03029633 C-1.11338332 22.25816231 -1.11537936 20.48602761 -1.11920547 18.71389771 C-1.12416661 16.29802938 -1.12298928 13.8822397 -1.12025452 11.46636963 C-1.12316736 10.76208651 -1.1260802 10.05780339 -1.12908131 9.33217835 C-1.11908458 6.07411253 -1.00085865 3.11617884 0 0 Z M41 42 C41 52.23 41 62.46 41 73 C47.38704456 73.09215776 53.77175425 73.17169903 60.15893555 73.21972656 C62.32861171 73.23976081 64.49823443 73.26699612 66.66772461 73.30175781 C69.798149 73.350637 72.92785548 73.37305125 76.05859375 73.390625 C77.49820717 73.42159271 77.49820717 73.42159271 78.96690369 73.45318604 C85.9497015 73.45547847 92.11367302 72.20784072 97.62522888 67.6585083 C100.98063602 64.06821484 102 60.84108697 102 56 C100.27313948 50.10835824 97.87791494 47.41454046 93 44 C89.5713936 42.38978532 86.89555999 41.75258458 83.11791992 41.77294922 C82.17732224 41.77310028 81.23672455 41.77325134 80.2676239 41.77340698 C79.2653627 41.78372955 78.2631015 41.79405212 77.23046875 41.8046875 C76.19432938 41.8075174 75.15819 41.81034729 74.09065247 41.81326294 C70.78948293 41.82443546 67.48858719 41.84953495 64.1875 41.875 C61.94596747 41.88503357 59.70443067 41.89415876 57.46289062 41.90234375 C51.97507071 41.92266148 46.48784094 41.96181634 41 42 Z " fill="#697351" transform="translate(1572,139)"/>
<path d="M0 0 C1.53616801 0.00138269 1.53616801 0.00138269 3.10336971 0.00279331 C4.85978283 0.00073132 4.85978283 0.00073132 6.65167904 -0.00137234 C8.59591511 0.00402058 8.59591511 0.00402058 10.57942867 0.00952244 C11.94901687 0.00980431 13.31860521 0.00964658 14.68819332 0.00907993 C18.41736714 0.00879195 22.14650906 0.01468874 25.87567544 0.02165389 C29.76878178 0.02788736 33.66188879 0.02849122 37.55499935 0.0296793 C44.93211912 0.03279263 52.30922415 0.04100605 59.68633741 0.05102879 C68.08281309 0.06218985 76.47928945 0.06770036 84.87577069 0.07272422 C102.15256968 0.08318867 119.42934835 0.10153417 136.70613766 0.12304783 C136.70613766 13.98304783 136.70613766 27.84304783 136.70613766 42.12304783 C104.36613766 42.12304783 72.02613766 42.12304783 38.70613766 42.12304783 C38.70613766 52.35304783 38.70613766 62.58304783 38.70613766 73.12304783 C62.46613766 73.12304783 86.22613766 73.12304783 110.70613766 73.12304783 C110.70613766 86.98304783 110.70613766 100.84304783 110.70613766 115.12304783 C86.94613766 115.12304783 63.18613766 115.12304783 38.70613766 115.12304783 C38.70613766 125.35304783 38.70613766 135.58304783 38.70613766 146.12304783 C71.04613766 146.12304783 103.38613766 146.12304783 136.70613766 146.12304783 C136.70613766 159.98304783 136.70613766 173.84304783 136.70613766 188.12304783 C118.60005828 188.14559414 100.49399081 188.16402659 82.38790131 188.17486 C73.98152382 188.18002314 65.57515565 188.18706617 57.16878414 188.19848728 C49.84445834 188.20843358 42.52013929 188.21490113 35.19580692 188.21713632 C31.31522978 188.21844352 27.43467196 188.22152995 23.55410099 188.22877789 C19.90574209 188.23553725 16.25741055 188.23766496 12.60904598 188.23615551 C10.62325346 188.2365642 8.63746396 188.24195983 6.65167904 188.24746799 C5.48073696 188.24609333 4.30979488 188.24471867 3.10336971 188.24330235 C1.5672017 188.24468503 1.5672017 188.24468503 0 188.24609566 C-2.29386234 188.12304783 -2.29386234 188.12304783 -3.29386234 187.12304783 C-3.39374144 184.72206199 -3.42828525 182.34978514 -3.42084599 179.94824314 C-3.42240598 179.18855354 -3.42396597 178.42886395 -3.42557323 177.64615345 C-3.42958614 175.08114062 -3.42639247 172.51618618 -3.42325687 169.95117283 C-3.42461079 168.12015848 -3.42639066 166.2891444 -3.42856693 164.45813084 C-3.43314247 159.47067191 -3.43135122 154.48323357 -3.42818785 149.49577427 C-3.42566486 144.28852372 -3.42800161 139.081275 -3.42957401 133.87402439 C-3.43139589 125.12760188 -3.42898893 116.38118781 -3.42423344 107.63476658 C-3.41879078 97.50722293 -3.42055343 87.37969942 -3.42605984 77.25215626 C-3.43059046 68.5736343 -3.43124177 59.89511841 -3.42862117 51.21659565 C-3.42705811 46.02594517 -3.42686542 40.83530416 -3.43015766 35.64465427 C-3.43303563 30.76593675 -3.43106206 25.88724531 -3.4252634 21.00853062 C-3.42393541 19.21256141 -3.42433059 17.41659003 -3.42652607 15.62062168 C-3.42923603 13.17966848 -3.42585837 10.73880022 -3.42084599 8.29785252 C-3.42307671 7.57773109 -3.42530743 6.85760967 -3.42760575 6.11566639 C-3.40377653 0.18258607 -3.40377653 0.18258607 0 0 Z " fill="#697351" transform="translate(1370.2938623428345,138.87695217132568)"/>
<path d="M0 0 C13.86 0 27.72 0 42 0 C42 24.09 42 48.18 42 73 C62.13 73 82.26 73 103 73 C103 48.91 103 24.82 103 0 C116.86 0 130.72 0 145 0 C145 62.04 145 124.08 145 188 C131.14 188 117.28 188 103 188 C103 163.91 103 139.82 103 115 C82.87 115 62.74 115 42 115 C42 139.09 42 163.18 42 188 C28.14 188 14.28 188 0 188 C0 125.96 0 63.92 0 0 Z " fill="#697351" transform="translate(1149,139)"/>
<path d="M0 0 C1.88019448 1.50981417 3.73557049 3.05115163 5.5625 4.625 C6.44550781 5.38425781 7.32851563 6.14351562 8.23828125 6.92578125 C15.16047943 13.3437829 19.19704029 20.36792955 23.5625 28.625 C24.15160156 29.52605469 24.74070312 30.42710937 25.34765625 31.35546875 C25.74855469 32.10441406 26.14945313 32.85335937 26.5625 33.625 C25.32098979 37.34953064 23.73899193 37.84901303 20.3679657 39.5824585 C19.64196671 39.94196594 18.91596771 40.30147339 18.16796875 40.671875 C17.42420486 41.04733459 16.68044098 41.42279419 15.91413879 41.80963135 C14.33873319 42.60122859 12.76074289 43.38769943 11.18041992 44.16943359 C8.76218807 45.36895432 6.35658081 46.59141352 3.95117188 47.81640625 C2.41997941 48.58214769 0.8880998 49.34651696 -0.64453125 50.109375 C-1.36445755 50.47697937 -2.08438385 50.84458374 -2.8261261 51.22332764 C-7.87652294 53.69003545 -7.87652294 53.69003545 -10.56181335 53.37872314 C-13.65834739 52.13441649 -14.21683786 49.50740382 -15.5625 46.5625 C-20.31290397 36.99751511 -27.37366958 31.87256691 -37.30859375 28.31640625 C-38.01113281 28.08824219 -38.71367187 27.86007813 -39.4375 27.625 C-40.9225 27.13 -40.9225 27.13 -42.4375 26.625 C-53.73420706 25.70742459 -63.79822474 27.01068204 -73.1875 33.6875 C-85.24505381 43.95389545 -91.04098108 57.83243711 -92.28515625 73.30859375 C-93.05744095 88.10132596 -88.69048443 101.47477292 -80.4375 113.625 C-79.79554688 114.58212891 -79.79554688 114.58212891 -79.140625 115.55859375 C-74.45531686 121.74595655 -66.19359403 127.41401134 -58.4375 128.625 C-44.53911481 129.72059343 -34.12551078 127.05424789 -22.69140625 118.6484375 C-18.81542894 115.16879062 -16.16864538 111.02064941 -13.4375 106.625 C-12.10853545 104.62209436 -10.77617793 102.6214266 -9.4375 100.625 C3.03669723 106.47893215 14.76753554 113.52270749 26.5625 120.625 C22.83899866 136.95881721 6.91600331 151.04315279 -6.5625 159.8125 C-26.07918068 171.32941051 -49.11265965 175.14149506 -71.2199707 169.59985352 C-83.92835625 166.00786704 -94.76004716 159.5726777 -104.4375 150.625 C-105.49324219 149.68914062 -105.49324219 149.68914062 -106.5703125 148.734375 C-122.59426036 133.77869033 -133.63061252 110.60027754 -134.56225586 88.69116211 C-135.29863035 57.23810697 -129.34114269 31.67144691 -107.921875 7.82421875 C-78.85635121 -22.29241675 -33.34180336 -24.08966611 0 0 Z " fill="#697351" transform="translate(503.4375,155.375)"/>
<path d="M0 0 C9.24 0 18.48 0 28 0 C35.20205198 15.43296853 42.03812819 30.9811069 48.71713257 46.64547729 C54.46013913 60.11234011 60.28246191 73.54091018 66.1875 86.9375 C72.42196758 101.08683212 78.5758086 115.26751759 84.64892578 129.48681641 C85.25030839 130.89486409 85.85170798 132.30290452 86.453125 133.7109375 C86.7467392 134.39842072 87.04035339 135.08590393 87.34286499 135.79421997 C91.06654474 144.50581629 94.83997818 153.19584012 98.61450195 161.88549805 C99.58682196 164.12447493 100.55797393 166.3639595 101.52783203 168.60400391 C102.5818157 171.03533274 103.64039654 173.46438041 104.70263672 175.89208984 C105.25892674 177.17148962 105.81508273 178.45094769 106.37109375 179.73046875 C106.87439209 180.88313232 107.37769043 182.0357959 107.89624023 183.22338867 C109 186 109 186 109 188 C93.82 188 78.64 188 63 188 C53.35247271 166.24024867 43.71169808 144.48681745 34.38818359 122.58666992 C31.28936007 115.31277685 28.15711979 108.05593877 24.9609375 100.82421875 C24.63154678 100.07767532 24.30215607 99.3311319 23.96278381 98.56196594 C22.38667633 94.99104582 20.80499104 91.42278786 19.21362305 87.85864258 C18.65391512 86.59335857 18.09441426 85.32798294 17.53515625 84.0625 C17.044104 82.96035156 16.55305176 81.85820312 16.04711914 80.72265625 C15 78 15 78 15 75 C14.34 75 13.68 75 13 75 C12.60538574 76.24950439 12.21077148 77.49900879 11.80419922 78.78637695 C9.90457927 84.47574218 7.54063396 89.9283379 5.1328125 95.41796875 C4.66145874 96.50109344 4.19010498 97.58421814 3.70446777 98.70016479 C2.18156164 102.19751753 0.65334851 105.69252263 -0.875 109.1875 C-1.92566633 111.59741213 -2.97595793 114.00748766 -4.02587891 116.41772461 C-6.08731743 121.14927805 -8.15046482 125.88008036 -10.21484375 130.61035156 C-13.09353313 137.2099001 -15.9530354 143.81759078 -18.80615234 150.42822266 C-22.90078696 159.91355271 -27.02616185 169.38389621 -31.25 178.8125 C-31.6217334 179.64467041 -31.9934668 180.47684082 -32.37646484 181.33422852 C-34.8774444 186.8774444 -34.8774444 186.8774444 -36 188 C-37.41225046 188.0928726 -38.82908934 188.11746772 -40.24438477 188.11352539 C-41.14524307 188.11344986 -42.04610138 188.11337433 -42.97425842 188.11329651 C-43.95341721 188.10813522 -44.93257599 188.10297394 -45.94140625 188.09765625 C-46.93881332 188.0962413 -47.9362204 188.09482635 -48.96385193 188.09336853 C-52.16343124 188.08775114 -55.36294169 188.07519571 -58.5625 188.0625 C-60.72591045 188.05748724 -62.88932199 188.05292395 -65.05273438 188.04882812 C-70.36851325 188.03777607 -75.68425171 188.02102104 -81 188 C-79.04932007 181.84558606 -76.79454026 175.909646 -74.2265625 169.98828125 C-73.686614 168.73125648 -73.686614 168.73125648 -73.13575745 167.44883728 C-71.96904371 164.73518564 -70.79712026 162.0238202 -69.625 159.3125 C-68.80871656 157.41711451 -67.99272 155.52160545 -67.17700195 153.62597656 C-64.7897741 148.08177361 -62.39565859 142.54056414 -60 137 C-59.36472088 135.52979605 -58.72946504 134.05958204 -58.09423828 132.58935547 C-54.91871092 125.24175394 -51.73374628 117.89826943 -48.54443359 110.55664062 C-46.13254975 105.00236876 -43.7256843 99.44592474 -41.31863403 93.88955688 C-40.50089819 92.00207318 -39.68297783 90.11466954 -38.86499023 88.22729492 C-36.2055109 82.09091881 -33.54703196 75.95411326 -30.890625 69.81640625 C-27.91583086 62.94407015 -24.93712756 56.07343694 -21.95611572 49.20379639 C-20.91616488 46.80676447 -19.87678867 44.40948377 -18.83740234 42.01220703 C-16.91938065 37.58925405 -14.99871101 33.16745774 -13.07653809 28.74630737 C-12.32471453 27.01611007 -11.57364094 25.28558667 -10.82336426 23.55471802 C-9.76844698 21.12150214 -8.71071205 18.68952892 -7.65234375 16.2578125 C-7.34241989 15.5413002 -7.03249603 14.8247879 -6.71318054 14.08656311 C-4.6220765 9.29263507 -2.34633534 4.69267068 0 0 Z " fill="#697351" transform="translate(638,139)"/>
<path d="M0 0 C1.8871875 -0.05607422 1.8871875 -0.05607422 3.8125 -0.11328125 C5.61847656 -0.13068359 5.61847656 -0.13068359 7.4609375 -0.1484375 C8.57001465 -0.16825684 9.6790918 -0.18807617 10.82177734 -0.20849609 C13.625 0.375 13.625 0.375 15.29248047 2.43457031 C15.73221191 3.40491211 16.17194336 4.37525391 16.625 5.375 C17.17381836 6.53016113 17.72263672 7.68532227 18.28808594 8.87548828 C18.89856447 10.23057773 19.50545024 11.58728955 20.109375 12.9453125 C20.60748688 14.0562603 20.60748688 14.0562603 21.11566162 15.18965149 C22.2057927 17.62480666 23.2906976 20.06224443 24.375 22.5 C24.75148682 23.34378204 25.12797363 24.18756409 25.51586914 25.05691528 C31.448292 38.35499208 37.24521246 51.70724913 42.95361328 65.1027832 C47.66419146 76.15523141 52.44189134 87.17714582 57.25 98.1875 C57.97659194 99.85220069 58.70315459 101.51691417 59.4296875 103.18164062 C60.49455634 105.62139882 61.55948297 108.06113171 62.62457275 110.50079346 C70.74929085 129.11143533 78.80782872 147.74911505 86.76416016 166.43240356 C87.54374427 168.26292983 88.32385143 170.09323343 89.10449219 171.92330933 C90.19266566 174.47540887 91.27837087 177.02854315 92.36328125 179.58203125 C92.85910454 180.74374344 92.85910454 180.74374344 93.36494446 181.92892456 C95.625 187.2602693 95.625 187.2602693 95.625 188.375 C80.445 188.375 65.265 188.375 49.625 188.375 C41.99118305 172.01682081 34.77985424 155.51759803 27.69750977 138.9152832 C21.54148875 124.48735868 15.29977612 110.0983885 9.01904297 95.72436523 C8.67819168 94.94429108 8.33734039 94.16421692 7.98616028 93.36050415 C7.35686738 91.92079367 6.72724861 90.48122555 6.09721375 89.0418396 C4.25383237 84.82767416 2.43228462 80.60477864 0.625 76.375 C-4.1458924 85.62263273 -8.46933226 94.97450489 -12.51306152 104.55938721 C-14.13067882 108.39260406 -15.76373123 112.21925268 -17.39453125 116.046875 C-17.72617279 116.82628448 -18.05781433 117.60569397 -18.39950562 118.40872192 C-21.75820033 126.29433075 -25.18239811 134.15072379 -28.625 142 C-28.91252136 142.6556897 -29.20004272 143.31137939 -29.49627686 143.98693848 C-30.90795847 147.20535331 -32.32091937 150.42320347 -33.73486328 153.640625 C-35.35672748 157.3317891 -36.97341848 161.02520083 -38.58984375 164.71875 C-39.58060481 166.97922118 -40.57148365 169.23964073 -41.5625 171.5 C-42.00819336 172.51916504 -42.45388672 173.53833008 -42.91308594 174.58837891 C-43.32719727 175.53116699 -43.74130859 176.47395508 -44.16796875 177.4453125 C-44.5239917 178.25758301 -44.88001465 179.06985352 -45.24682617 179.90673828 C-46.55226904 182.76283597 -47.97061579 185.56623158 -49.375 188.375 C-64.225 188.375 -79.075 188.375 -94.375 188.375 C-93.49053991 183.95269956 -92.33437801 180.63440657 -90.55859375 176.53125 C-90.12679054 175.5279792 -90.12679054 175.5279792 -89.68626404 174.50444031 C-88.73294588 172.29260735 -87.77275299 170.08383004 -86.8125 167.875 C-86.13710444 166.31178972 -85.46214489 164.74839099 -84.78759766 163.18481445 C-83.37176145 159.90536328 -81.95298249 156.62720869 -80.53173828 153.35009766 C-78.44187089 148.531155 -76.35885879 143.70927385 -74.27734375 138.88671875 C-70.31664611 129.71322001 -66.34687282 120.54366466 -62.375 111.375 C-61.78889184 110.02181332 -61.20279135 108.66862331 -60.61669922 107.31542969 C-57.39633586 99.88045138 -54.17435167 92.44617653 -50.95166016 85.01220703 C-49.07454462 80.68187763 -47.19786658 76.35135878 -45.32142639 72.02073669 C-43.96725086 68.8954571 -42.61288843 65.77025884 -41.25805664 62.64526367 C-38.7802705 56.92958753 -36.30420896 51.2131869 -33.83502197 45.49378967 C-28.65369185 33.4922833 -23.47193331 21.49145138 -18.125 9.5625 C-17.5686084 8.31702393 -17.5686084 8.31702393 -17.00097656 7.04638672 C-13.05795625 -1.69378559 -9.1633001 0.10264389 0 0 Z " fill="#697351" transform="translate(1844.375,138.625)"/>
<path d="M0 0 C1.64678317 0.00138269 1.64678317 0.00138269 3.32683468 0.00279331 C4.5819183 0.00141865 5.83700191 0.00004398 7.13011837 -0.00137234 C8.53382039 0.00216727 9.93752217 0.00580209 11.34122372 0.00952244 C12.80933283 0.0098043 14.27744208 0.00964659 15.74555111 0.00907993 C19.74331052 0.00879193 23.74104019 0.01468909 27.73879266 0.02165389 C31.91217128 0.02788698 36.08555051 0.02849119 40.25893307 0.0296793 C48.16729187 0.03279275 56.07563692 0.04100632 63.98398966 0.05102879 C72.98504889 0.0621895 81.98610877 0.06770027 90.9871732 0.07272422 C109.50811284 0.08318892 128.02903362 0.10153457 146.54996395 0.12304783 C146.54996395 13.98304783 146.54996395 27.84304783 146.54996395 42.12304783 C128.72996395 42.12304783 110.90996395 42.12304783 92.54996395 42.12304783 C92.54996395 90.30304783 92.54996395 138.48304783 92.54996395 188.12304783 C78.68996395 188.12304783 64.82996395 188.12304783 50.54996395 188.12304783 C50.54996395 139.94304783 50.54996395 91.76304783 50.54996395 42.12304783 C33.05996395 42.12304783 15.56996395 42.12304783 -2.45003605 42.12304783 C-4.34626807 40.22681581 -3.5790123 37.45934423 -3.58898258 34.93676853 C-3.58695835 34.0701157 -3.58493412 33.20346287 -3.58284855 32.31054783 C-3.58380527 31.42649265 -3.584762 30.54243748 -3.58574772 29.63159275 C-3.58642956 27.75862653 -3.58457498 25.88565797 -3.58040714 24.01269627 C-3.57505894 21.13536395 -3.58035198 18.25818775 -3.5867548 15.38086033 C-3.58609402 13.56575582 -3.58481286 11.7506514 -3.58284855 9.93554783 C-3.58487278 9.068895 -3.58689701 8.20224216 -3.58898258 7.30932713 C-3.56079988 0.17883357 -3.56079988 0.17883357 0 0 Z " fill="#697351" transform="translate(948.4500360488892,138.87695217132568)"/>
<path d="M0 0 C13.86 0 27.72 0 42 0 C42 48.18 42 96.36 42 146 C67.74 146 93.48 146 120 146 C120 159.86 120 173.72 120 188 C80.4 188 40.8 188 0 188 C0 125.96 0 63.92 0 0 Z " fill="#697351" transform="translate(791,139)"/>
<path d="M0 0 C0.99 0.66 1.98 1.32 3 2 C3.33 1.34 3.66 0.68 4 0 C7.3 0 10.6 0 14 0 C14.07479497 4.53487644 14.12890262 9.06938482 14.16479492 13.60473633 C14.17977543 15.14386255 14.2001671 16.68294688 14.22631836 18.22192383 C14.49367906 34.37365545 14.49367906 34.37365545 11 42 C6.40649941 46.59350059 2.58330384 47.16845532 -3.75 47.25 C-13.33877351 47.14126133 -13.33877351 47.14126133 -18 44 C-22 38.7027027 -22 38.7027027 -22 36 C-20.22950311 35.94589313 -18.45853151 35.90715881 -16.6875 35.875 C-15.70136719 35.85179687 -14.71523438 35.82859375 -13.69921875 35.8046875 C-11 36 -11 36 -8 38 C-5.24612373 38.02477359 -5.24612373 38.02477359 -2.3125 37.625 C-1.31863281 37.51414062 -0.32476563 37.40328125 0.69921875 37.2890625 C1.45847656 37.19367188 2.21773437 37.09828125 3 37 C3 35.35 3 33.7 3 32 C2.01 32.66 1.02 33.32 0 34 C-5.63419467 34.94661752 -10.67056467 34.79705687 -15.5 31.5625 C-19.54148697 28.02723624 -21.25115927 24.27671489 -22 19 C-22.22194503 12.88642319 -20.90644931 8.82561385 -17 4 C-16.566875 3.4225 -16.13375 2.845 -15.6875 2.25 C-10.84223705 -1.33908366 -5.64984259 -1.30380983 0 0 Z M-9.875 10 C-12.24266331 13.3425835 -12.75726358 15.06013415 -12.484375 19.0625 C-11.61901083 22.52395669 -9.85801731 24.01181405 -7 26 C-3.2007634 26.71235686 -1.56275179 26.31263988 1.8125 24.4375 C4.67800813 21.24450523 5 19.25880812 5 15 C3.41161066 11.42612398 2.28365642 10.18910428 -1 8 C-4.99800164 7.39160845 -6.52201252 7.66748697 -9.875 10 Z " fill="#697351" transform="translate(903,368)"/>
<path d="M0 0 C3 2.0625 3 2.0625 5 4 C5.66 3.360625 6.32 2.72125 7 2.0625 C10.69296097 -0.47641067 13.54165077 -1.22728839 18 -1 C22.24338043 0.52121185 24.71710592 2.12184546 27 6 C27.34057617 9.02441406 27.34057617 9.02441406 27.29296875 12.515625 C27.2784668 14.39121094 27.2784668 14.39121094 27.26367188 16.3046875 C27.23853516 17.60664063 27.21339844 18.90859375 27.1875 20.25 C27.16719727 22.22613281 27.16719727 22.22613281 27.14648438 24.2421875 C27.11112551 27.49520321 27.06177033 30.747396 27 34 C24.03 34 21.06 34 18 34 C17.970271 33.02389771 17.970271 33.02389771 17.93994141 32.02807617 C17.84470701 29.08080849 17.73502182 26.13425115 17.625 23.1875 C17.5940625 22.16333984 17.563125 21.13917969 17.53125 20.08398438 C17.47324219 18.60961914 17.47324219 18.60961914 17.4140625 17.10546875 C17.3826416 16.19949951 17.3512207 15.29353027 17.31884766 14.36010742 C17.13972081 11.73474608 17.13972081 11.73474608 15 9 C12.05272465 9.10169161 12.05272465 9.10169161 9 10 C6.30890453 14.50940322 6.55767072 19.7091367 6.375 24.8125 C6.33632812 25.69615234 6.29765625 26.57980469 6.2578125 27.49023438 C6.16399216 29.65982972 6.08092674 31.82988547 6 34 C3.03 34 0.06 34 -3 34 C-3.06058594 32.60265625 -3.12117188 31.2053125 -3.18359375 29.765625 C-3.26801703 27.92707358 -3.35266414 26.08853243 -3.4375 24.25 C-3.47681641 23.32960938 -3.51613281 22.40921875 -3.55664062 21.4609375 C-3.59853516 20.57148438 -3.64042969 19.68203125 -3.68359375 18.765625 C-3.72025146 17.94868164 -3.75690918 17.13173828 -3.79467773 16.29003906 C-3.99134275 14.0965577 -4.40300594 12.11603587 -5 10 C-8.97754128 9.26665571 -8.97754128 9.26665571 -13 9 C-13.86111516 12.02769315 -14.18230893 14.84266637 -14.31640625 17.984375 C-14.35830078 18.91894531 -14.40019531 19.85351562 -14.44335938 20.81640625 C-14.50233398 22.26853516 -14.50233398 22.26853516 -14.5625 23.75 C-14.60568359 24.73355469 -14.64886719 25.71710938 -14.69335938 26.73046875 C-14.79921949 29.15348927 -14.90009312 31.57672672 -15 34 C-18.3 34 -21.6 34 -25 34 C-25.02465288 29.31860746 -25.04283739 24.63725241 -25.05493164 19.95581055 C-25.05997157 18.36205386 -25.0668035 16.76830181 -25.07543945 15.17456055 C-25.08751999 12.88849747 -25.09323155 10.60249533 -25.09765625 8.31640625 C-25.10281754 7.59973282 -25.10797882 6.88305939 -25.11329651 6.14466858 C-25.11349263 4.42936328 -25.06192007 2.71418734 -25 1 C-24 0 -24 0 -21.93359375 -0.09765625 C-20.69802734 -0.08025391 -20.69802734 -0.08025391 -19.4375 -0.0625 C-18.61121094 -0.05347656 -17.78492188 -0.04445313 -16.93359375 -0.03515625 C-16.29550781 -0.02355469 -15.65742187 -0.01195312 -15 0 C-14.67 0.66 -14.34 1.32 -14 2 C-13.175 1.484375 -12.35 0.96875 -11.5 0.4375 C-7.24170002 -1.31144463 -4.36924423 -1.36370662 0 0 Z " fill="#697351" transform="translate(1166,368)"/>
<path d="M0 0 C0.33 -0.66 0.66 -1.32 1 -2 C3.97 -2 6.94 -2 10 -2 C10.07466101 2.69560343 10.12884101 7.39085443 10.16479492 12.08691406 C10.17979745 13.68137641 10.20020621 15.27579808 10.22631836 16.87011719 C10.26308134 19.17393077 10.27981155 21.4771946 10.29296875 23.78125 C10.30845261 24.48366821 10.32393646 25.18608643 10.33988953 25.90979004 C10.34165487 31.20833007 9.18009762 35.15692728 7 40 C2.31903708 44.56393885 -1.42119381 45.16832197 -7.8125 45.25 C-9.61654297 45.28867187 -9.61654297 45.28867187 -11.45703125 45.328125 C-16.60567645 44.85129347 -19.82968094 43.2319148 -23.375 39.5 C-25 37 -25 37 -25 34 C-23.39620659 33.94583812 -21.79188594 33.90713362 -20.1875 33.875 C-19.29417969 33.85179687 -18.40085937 33.82859375 -17.48046875 33.8046875 C-15 34 -15 34 -12 36 C-9.24612373 36.02477359 -9.24612373 36.02477359 -6.3125 35.625 C-5.31863281 35.51414062 -4.32476563 35.40328125 -3.30078125 35.2890625 C-2.54152344 35.19367188 -1.78226563 35.09828125 -1 35 C-1 33.68 -1 32.36 -1 31 C-1.99 31.495 -1.99 31.495 -3 32 C-10.10855901 32.71910796 -15.32865346 32.51392888 -21 28 C-25.22001361 22.80613709 -25.56368916 18.42293151 -25.32421875 11.80859375 C-24.78876294 7.17012713 -23.05741971 4.35953963 -20.25 0.75 C-14.12594983 -4.01315013 -6.55508834 -3.93305301 0 0 Z M-15 10 C-16.42662219 12.85324437 -16.31033868 14.83454549 -16 18 C-14.5714939 20.9315113 -14.5714939 20.9315113 -12 23 C-8.52817876 23.92995212 -6.15265918 24.34268246 -2.6875 23.3125 C-0.568212 21.66416489 0.14874336 20.55376992 1 18 C1.32369432 14.11566819 1.30567313 11.22794238 -1 8 C-6.2112521 4.27767707 -11.12316555 5.11806032 -15 10 Z " fill="#697351" transform="translate(1707,370)"/>
<path d="M0 0 C0.495 -0.474375 0.99 -0.94875 1.5 -1.4375 C5.67901283 -4.04938302 9.97120917 -4.46108883 14.75 -3.375 C18.56620861 -1.04287252 20.59758766 1.79276299 22 6 C22.08266486 7.91906917 22.10740663 9.84089474 22.09765625 11.76171875 C22.09443359 12.87998047 22.09121094 13.99824219 22.08789062 15.15039062 C22.07532227 16.90125977 22.07532227 16.90125977 22.0625 18.6875 C22.05798828 19.86634766 22.05347656 21.04519531 22.04882812 22.25976562 C22.03703273 25.17322789 22.0205727 28.08658863 22 31 C18.7 31 15.4 31 12 31 C11.505 18.625 11.505 18.625 11 6 C5.47531663 5.45197374 5.47531663 5.45197374 3.1875 7.1875 C0.27616442 11.63111746 0.70110027 17.65717012 0.4375 22.8125 C0.39431641 23.60076172 0.35113281 24.38902344 0.30664062 25.20117188 C0.20121679 27.13394215 0.10016906 29.06695026 0 31 C-2.97 31 -5.94 31 -9 31 C-9.01981934 30.34926514 -9.03963867 29.69853027 -9.06005859 29.02807617 C-9.15529299 26.08080849 -9.26497818 23.13425115 -9.375 20.1875 C-9.4059375 19.16333984 -9.436875 18.13917969 -9.46875 17.08398438 C-9.50742188 16.10107422 -9.54609375 15.11816406 -9.5859375 14.10546875 C-9.63306885 12.74651489 -9.63306885 12.74651489 -9.68115234 11.36010742 C-9.86027919 8.73474608 -9.86027919 8.73474608 -12 6 C-14.45672892 5.33314062 -14.45672892 5.33314062 -17 6 C-20.87952176 10.52610872 -20.5474035 15.64859858 -20.6875 21.3125 C-20.72166016 22.24384766 -20.75582031 23.17519531 -20.79101562 24.13476562 C-20.87314888 26.42276341 -20.93825997 28.71136113 -21 31 C-23.97 31 -26.94 31 -30 31 C-30 19.78 -30 8.56 -30 -3 C-27.03 -3 -24.06 -3 -21 -3 C-20.67 -2.34 -20.34 -1.68 -20 -1 C-19.030625 -1.53625 -18.06125 -2.0725 -17.0625 -2.625 C-11.13747347 -5.19010295 -5.42780058 -2.87930731 0 0 Z " fill="#697351" transform="translate(1500,371)"/>
<path d="M0 0 C3.3 0 6.6 0 10 0 C10 4.95 10 9.9 10 15 C11.485 14.2265625 11.485 14.2265625 13 13.4375 C17.41885566 11.55009404 20.33513334 11.94664301 25 13 C29.91997974 15.23635443 32.70481674 18.60391096 35.25 23.3125 C37.0617472 29.80459414 36.27075007 34.99544933 33.31640625 40.9453125 C31.12396019 44.36734998 28.80718651 46.51742832 25 48 C19.82132652 48.75006981 15.59353649 48.62940364 11 46 C10.505 46.495 10.505 46.495 10 47 C6.7 47 3.4 47 0 47 C0 31.49 0 15.98 0 0 Z M10 25 C8.78354489 29.10553601 8.73945712 31.2732225 10.1875 35.3125 C12.4242438 38.63247418 12.4242438 38.63247418 16 40 C19.42573131 39.8572612 21.47340665 39.33258527 24.375 37.5 C26.81341415 33.74859362 26.88861164 30.34260644 26 26 C23.56579582 22.49188221 22.20657416 21.22623266 18 20.4375 C14.19529549 21.1508821 12.58803981 22.11618421 10 25 Z " fill="#697351" transform="translate(1537,355)"/>
<path d="M0 0 C2.62309529 1.79094092 3.34245592 3.11266516 5 6 C5.71727893 10.46306891 5.38496283 12.3542559 3.0625 16.25 C2.0415625 17.61125 2.0415625 17.61125 1 19 C0.67 19.99 0.34 20.98 0 22 C1.87197454 24.69433317 1.87197454 24.69433317 4 27 C6.31 26.34 8.62 25.68 11 25 C12.32 26.65 13.64 28.3 15 30 C14.67 30.598125 14.34 31.19625 14 31.8125 C12.79212012 34.05386471 12.79212012 34.05386471 13 37 C14.0772721 38.65503095 14.0772721 38.65503095 15.5 40.1875 C16.325 41.115625 17.15 42.04375 18 43 C16.083412 43.02712153 14.1667127 43.04645097 12.25 43.0625 C10.64898438 43.07990234 10.64898438 43.07990234 9.015625 43.09765625 C6 43 6 43 3.921875 42.37109375 C1.19151969 41.843891 -0.45803134 42.94841177 -3 44 C-8.4608367 44.62451058 -13.33977104 44.94405176 -18.1875 42.1875 C-21.06278913 38.71732346 -21.33368524 35.49669122 -21.29296875 31.05859375 C-20.82140773 27.74509166 -19.00924939 25.60020509 -17 23 C-15.57944932 20.99863756 -15.57944932 20.99863756 -15 19 C-15.30808594 18.40316406 -15.61617187 17.80632812 -15.93359375 17.19140625 C-17.82798175 13.298543 -17.68263427 9.21867976 -17 5 C-12.33961379 -1.17186282 -7.1783456 -2.02401689 0 0 Z M-7 8 C-7.67958603 10.39719432 -7.67958603 10.39719432 -8 13 C-7.34 13.66 -6.68 14.32 -6 15 C-3.69328085 12.28450846 -3.69328085 12.28450846 -4.375 9.8125 C-4.58125 9.214375 -4.7875 8.61625 -5 8 C-5.66 8 -6.32 8 -7 8 Z M-10 28 C-12.36980013 30.95377498 -12.36980013 30.95377498 -12 35 C-7.46859347 35.93380961 -7.46859347 35.93380961 -3 35 C-4.07401108 32.08482708 -4.77810176 30.22189824 -7 28 C-7.99 28 -8.98 28 -10 28 Z " fill="#697351" transform="translate(1004,359)"/>
<path d="M0 0 C2.97 0 5.94 0 9 0 C9.33 4.95 9.66 9.9 10 15 C11.485 14.2265625 11.485 14.2265625 13 13.4375 C17.41885566 11.55009404 20.33513334 11.94664301 25 13 C29.1214852 14.87340237 31.62262552 17.14701377 34 21 C36.05404308 27.10946147 36.93238193 33.07611553 34 39 C31.17823455 42.96292059 28.69573151 46.43475616 24 48 C18.96056114 48.40579751 14.58191774 48.36486077 10 46 C9.505 46.495 9.505 46.495 9 47 C6.03 47 3.06 47 0 47 C0 31.49 0 15.98 0 0 Z M10 25 C8.24339433 28.51321134 9.05145309 32.28485792 10 36 C11.95139887 38.79497184 11.95139887 38.79497184 15 40 C19.24645609 40.07449923 21.220257 39.67977595 24.4375 36.875 C26.39051013 33.28146137 26.44072217 31.03995323 26 27 C24.81232145 23.61968411 24.10174775 23.06783183 21 21 C15.89885234 20.33463291 13.65309056 21.45128345 10 25 Z " fill="#697351" transform="translate(1209,355)"/>
<path d="M0 0 C2.57161458 0.03255208 5.14322917 0.06510417 7.71484375 0.09765625 C11.3675539 8.72054803 14.83762065 17.40583807 18.21899414 26.13769531 C19.04025124 28.25594829 19.86675966 30.37210826 20.69335938 32.48828125 C21.21776685 33.83972004 21.74186737 35.19127798 22.265625 36.54296875 C22.73653564 37.75484863 23.20744629 38.96672852 23.69262695 40.21533203 C24.71484375 43.09765625 24.71484375 43.09765625 24.71484375 45.09765625 C21.41484375 45.09765625 18.11484375 45.09765625 14.71484375 45.09765625 C13.72484375 42.12765625 12.73484375 39.15765625 11.71484375 36.09765625 C5.77484375 36.09765625 -0.16515625 36.09765625 -6.28515625 36.09765625 C-7.27515625 39.06765625 -8.26515625 42.03765625 -9.28515625 45.09765625 C-12.58515625 45.09765625 -15.88515625 45.09765625 -19.28515625 45.09765625 C-16.88811006 36.48381041 -13.76993173 28.20696047 -10.55957031 19.87182617 C-9.65077055 17.51077228 -8.7488631 15.14716426 -7.84765625 12.78320312 C-7.27253706 11.28239811 -6.69703073 9.78174138 -6.12109375 8.28125 C-5.85130707 7.57407333 -5.58152039 6.86689667 -5.30355835 6.13829041 C-2.98106438 0.12739591 -2.98106438 0.12739591 0 0 Z M1.71484375 14.09765625 C1.04179357 15.69915511 0.37662148 17.30396654 -0.28515625 18.91015625 C-0.65640625 19.80347656 -1.02765625 20.69679688 -1.41015625 21.6171875 C-2.45148862 24.13079955 -2.45148862 24.13079955 -2.28515625 27.09765625 C1.01484375 27.09765625 4.31484375 27.09765625 7.71484375 27.09765625 C6.99475969 22.48911828 5.40188436 18.42528216 3.71484375 14.09765625 C3.05484375 14.09765625 2.39484375 14.09765625 1.71484375 14.09765625 Z " fill="#697351" transform="translate(1774.28515625,356.90234375)"/>
<path d="M0 0 C3.3 0 6.6 0 10 0 C10.33 4.62 10.66 9.24 11 14 C11.58265625 12.989375 12.1653125 11.97875 12.765625 10.9375 C19.19920918 0.50185974 19.19920918 0.50185974 24.3359375 -0.9296875 C27.33548222 -0.87981383 30.07065617 -0.63418784 33 0 C29.20653426 5.94884401 25.1274557 11.3591107 20.44140625 16.640625 C18.75379396 18.87605525 18.75379396 18.87605525 19.21240234 21.34570312 C20.10101457 24.34043101 21.33433554 26.2985472 23.16015625 28.828125 C23.78857422 29.70984375 24.41699219 30.5915625 25.06445312 31.5 C25.72380859 32.4075 26.38316406 33.315 27.0625 34.25 C28.3677162 36.06639417 29.67120284 37.88403288 30.97265625 39.703125 C31.55281494 40.50395508 32.13297363 41.30478516 32.73071289 42.12988281 C34 44 34 44 34 45 C30.07083466 45.87397784 26.90480282 46.07075096 23 45 C18.7930411 41.4874478 15.91299312 36.57756062 13 32 C12.34 31.01 11.68 30.02 11 29 C10.67 34.28 10.34 39.56 10 45 C6.7 45 3.4 45 0 45 C0 30.15 0 15.3 0 0 Z " fill="#697351" transform="translate(1378,357)"/>
<path d="M0 0 C2.97 0 5.94 0 9 0 C9.33 4.62 9.66 9.24 10 14 C10.71027344 13.07316406 11.42054688 12.14632813 12.15234375 11.19140625 C13.08069105 9.98174158 14.00907855 8.77210776 14.9375 7.5625 C15.40607422 6.95083984 15.87464844 6.33917969 16.35742188 5.70898438 C19.88671875 1.11328125 19.88671875 1.11328125 21 0 C22.85287502 -0.07226502 24.70833878 -0.0838122 26.5625 -0.0625 C27.57441406 -0.05347656 28.58632813 -0.04445313 29.62890625 -0.03515625 C30.80259766 -0.01775391 30.80259766 -0.01775391 32 0 C31.17012926 1.27309715 30.3357781 2.54327316 29.5 3.8125 C28.96375 4.62847656 28.4275 5.44445312 27.875 6.28515625 C26.55961807 8.18971967 25.17773888 10.04923945 23.75 11.87109375 C23.0075 12.82113281 22.265 13.77117187 21.5 14.75 C20.7884375 15.63171875 20.076875 16.5134375 19.34375 17.421875 C17.66706273 19.90342977 17.66706273 19.90342977 18.72607422 22.37304688 C19.98773838 24.9747154 21.38253154 27.24176001 23.0390625 29.609375 C23.61914062 30.44597656 24.19921875 31.28257812 24.796875 32.14453125 C25.40015625 33.00433594 26.0034375 33.86414063 26.625 34.75 C27.82750462 36.47257518 29.02813519 38.19646068 30.2265625 39.921875 C31.02441162 41.06027832 31.02441162 41.06027832 31.83837891 42.22167969 C33 44 33 44 33 45 C29.00780524 46.04244931 25.96566522 46.2340877 22 45 C16.9829888 40.4406268 13.02060177 34.04120355 10 28 C9.67 33.61 9.34 39.22 9 45 C6.03 45 3.06 45 0 45 C0 30.15 0 15.3 0 0 Z " fill="#697351" transform="translate(380,357)"/>
<path d="M0 0 C0.53625 0.12375 1.0725 0.2475 1.625 0.375 C1.955 0.045 2.285 -0.285 2.625 -0.625 C5.595 -0.625 8.565 -0.625 11.625 -0.625 C11.625 10.595 11.625 21.815 11.625 33.375 C7.625 33.375 3.625 33.375 -0.375 33.375 C-1.86 33.87 -1.86 33.87 -3.375 34.375 C-8.46318127 34.99767953 -12.93086621 35.16486086 -17.3125 32.25 C-21.800569 28.45890171 -23.40215912 24.27201659 -24.3125 18.5625 C-24.80928306 11.97515661 -22.42648664 7.13389583 -18.5625 1.9375 C-12.55601477 -2.35284659 -6.81768478 -1.79412757 0 0 Z M-12.25 9.375 C-15.16377375 13.48856294 -14.92740554 15.40335016 -14.375 20.375 C-13.5246288 23.06784213 -12.86704329 24.00596753 -10.625 25.6875 C-7.48582448 26.64669252 -5.51330576 26.29033918 -2.375 25.375 C0.81819107 23.13113601 1.52867244 21.72820104 2.5625 17.9375 C2.63254154 13.94513213 2.08965254 12.45581567 -0.375 9.375 C-4.87922809 6.37218128 -7.76096724 6.2521946 -12.25 9.375 Z " fill="#697351" transform="translate(1879.375,368.625)"/>
<path d="M0 0 C0.53625 0.12375 1.0725 0.2475 1.625 0.375 C1.955 0.045 2.285 -0.285 2.625 -0.625 C5.595 -0.625 8.565 -0.625 11.625 -0.625 C11.625 10.595 11.625 21.815 11.625 33.375 C7.625 33.375 3.625 33.375 -0.375 33.375 C-1.86 33.87 -1.86 33.87 -3.375 34.375 C-8.46318127 34.99767953 -12.93086621 35.16486086 -17.3125 32.25 C-21.800569 28.45890171 -23.40215912 24.27201659 -24.3125 18.5625 C-24.80928306 11.97515661 -22.42648664 7.13389583 -18.5625 1.9375 C-12.55601477 -2.35284659 -6.81768478 -1.79412757 0 0 Z M-12.25 9.375 C-15.16377375 13.48856294 -14.92740554 15.40335016 -14.375 20.375 C-13.5246288 23.06784213 -12.86704329 24.00596753 -10.625 25.6875 C-7.48582448 26.64669252 -5.51330576 26.29033918 -2.375 25.375 C0.81819107 23.13113601 1.52867244 21.72820104 2.5625 17.9375 C2.63254154 13.94513213 2.08965254 12.45581567 -0.375 9.375 C-4.87922809 6.37218128 -7.76096724 6.2521946 -12.25 9.375 Z " fill="#697351" transform="translate(1609.375,368.625)"/>
<path d="M0 0 C2.97 0 5.94 0 9 0 C9.33 4.95 9.66 9.9 10 15 C11.98 14.01 13.96 13.02 16 12 C20.10276298 11.59194943 23.31888113 12.61501977 26.875 14.625 C32.17044419 20.54343762 31.2456101 28.46431266 31.125 35.9375 C31.11597656 37.00291016 31.10695313 38.06832031 31.09765625 39.16601562 C31.07423539 41.77744161 31.03836937 44.38875087 31 47 C27.7 47 24.4 47 21 47 C20.95101563 45.36289062 20.90203125 43.72578125 20.8515625 42.0390625 C20.77654361 39.901024 20.7009954 37.76300402 20.625 35.625 C20.5940625 34.54476562 20.563125 33.46453125 20.53125 32.3515625 C20.49257812 31.3203125 20.45390625 30.2890625 20.4140625 29.2265625 C20.36693115 27.79691162 20.36693115 27.79691162 20.31884766 26.33837891 C20.21444204 23.81104824 20.21444204 23.81104824 18 22 C14.90073181 22.32198966 14.90073181 22.32198966 12 23 C9.94277412 28.16815281 9.58486681 32.8922296 9.375 38.375 C9.31699219 39.62216797 9.31699219 39.62216797 9.2578125 40.89453125 C9.16425754 42.92935156 9.08107287 44.96464416 9 47 C6.03 47 3.06 47 0 47 C0 31.49 0 15.98 0 0 Z " fill="#697351" transform="translate(1305,355)"/>
<path d="M0 0 C4.03778908 3.00854872 5.27403102 4.70613569 7.1875 9.375 C7.1875 12.345 7.1875 15.315 7.1875 18.375 C-1.3925 18.375 -9.9725 18.375 -18.8125 18.375 C-16.48998574 23.25995525 -16.48998574 23.25995525 -13.8125 24.375 C-8.55344829 24.77954244 -5.35951708 24.03666853 -0.8125 21.375 C1.1675 23.025 3.1475 24.675 5.1875 26.375 C4.1875 29.375 4.1875 29.375 0.875 31.5625 C-5.53222713 34.56408388 -12.60519742 34.42466266 -19.25 32.25 C-23.26684726 29.31084347 -26.20784056 26.18897832 -27.8125 21.375 C-28.47080977 13.99329697 -28.58976784 8.25471426 -23.8125 2.375 C-16.54507237 -3.12194062 -8.20681867 -4.12109644 0 0 Z M-17.8125 9.375 C-17.8125 10.035 -17.8125 10.695 -17.8125 11.375 C-12.5325 11.375 -7.2525 11.375 -1.8125 11.375 C-2.56400023 8.09726496 -2.56400023 8.09726496 -5.8125 6.375 C-7.99278396 6.02206549 -7.99278396 6.02206549 -10.3125 6.0625 C-11.0859375 6.04574219 -11.859375 6.02898437 -12.65625 6.01171875 C-15.31302926 6.4593283 -16.20122529 7.25245543 -17.8125 9.375 Z " fill="#697351" transform="translate(1447.8125,369.625)"/>
<path d="M0 0 C2.97 0 5.94 0 9 0 C9.33 7.92 9.66 15.84 10 24 C17.37896557 17.14401079 17.37896557 17.14401079 20 13 C22.8203125 12.70703125 22.8203125 12.70703125 26.125 12.8125 C27.76855469 12.85310547 27.76855469 12.85310547 29.4453125 12.89453125 C30.70988281 12.94673828 30.70988281 12.94673828 32 13 C30.3383196 17.12417063 27.37661982 20.06554039 24.375 23.25 C23.859375 23.80429687 23.34375 24.35859375 22.8125 24.9296875 C21.54574965 26.2902712 20.27342185 27.64565837 19 29 C23.31134178 34.08517236 27.7405004 39.04325291 32.2421875 43.9609375 C34 46 34 46 34 47 C23.84934552 48.21807854 23.84934552 48.21807854 19.5625 45.39453125 C17.53802253 43.35088259 15.75152804 41.2809672 14 39 C12.68 37.35 11.36 35.7 10 34 C9.67 38.29 9.34 42.58 9 47 C6.03 47 3.06 47 0 47 C0 31.49 0 15.98 0 0 Z " fill="#697351" transform="translate(1907,355)"/>
<path d="M0 0 C2.97 0 5.94 0 9 0 C9.33 7.92 9.66 15.84 10 24 C17.37896557 17.14401079 17.37896557 17.14401079 20 13 C22.8203125 12.70703125 22.8203125 12.70703125 26.125 12.8125 C27.76855469 12.85310547 27.76855469 12.85310547 29.4453125 12.89453125 C30.70988281 12.94673828 30.70988281 12.94673828 32 13 C30.3383196 17.12417063 27.37661982 20.06554039 24.375 23.25 C23.859375 23.80429687 23.34375 24.35859375 22.8125 24.9296875 C21.54574965 26.2902712 20.27342185 27.64565837 19 29 C23.31134178 34.08517236 27.7405004 39.04325291 32.2421875 43.9609375 C34 46 34 46 34 47 C23.84934552 48.21807854 23.84934552 48.21807854 19.5625 45.39453125 C17.53802253 43.35088259 15.75152804 41.2809672 14 39 C12.68 37.35 11.36 35.7 10 34 C9.67 38.29 9.34 42.58 9 47 C6.03 47 3.06 47 0 47 C0 31.49 0 15.98 0 0 Z " fill="#697351" transform="translate(720,355)"/>
<path d="M0 0 C2.97 0 5.94 0 9 0 C9.33 7.92 9.66 15.84 10 24 C11.423125 22.185 12.84625 20.37 14.3125 18.5 C16.92807222 15.40438506 19.03540401 13.22632302 23.11328125 12.26953125 C25.82021882 12.30815163 28.34148252 12.49963264 31 13 C29.62059347 17.26636118 27.69477998 19.58208355 24.4375 22.625 C20.95042922 25.80578205 20.95042922 25.80578205 19 30 C19.38857178 30.40839111 19.77714355 30.81678223 20.17749023 31.23754883 C21.93584612 33.0911786 23.68671546 34.95171853 25.4375 36.8125 C26.04916016 37.45509766 26.66082031 38.09769531 27.29101562 38.75976562 C28.1659668 39.69272461 28.1659668 39.69272461 29.05859375 40.64453125 C29.59798584 41.21534424 30.13737793 41.78615723 30.69311523 42.37426758 C32 44 32 44 33 47 C28.84004826 47.63349519 25.14202829 47.82840566 21 47 C16.36589979 43.40011958 13.22938061 38.84407091 10 34 C9.67 38.29 9.34 42.58 9 47 C6.03 47 3.06 47 0 47 C0 31.49 0 15.98 0 0 Z " fill="#697351" transform="translate(546,355)"/>
<path d="M0 0 C20 0 20 0 26 4 C28.92462364 8.2094294 28.62922203 13.07497815 28 18 C26.32063265 21.48313228 25.07452014 23.32458734 21.8125 25.375 C19 26 19 26 10 26 C10 32.27 10 38.54 10 45 C6.7 45 3.4 45 0 45 C0 30.15 0 15.3 0 0 Z M10 9 C10 11.64 10 14.28 10 17 C13.41656024 17.16677282 13.41656024 17.16677282 17 17 C17.66 16.34 18.32 15.68 19 15 C18.71016731 11.69316534 18.71016731 11.69316534 17 9 C14.66702567 8.95907063 12.33294775 8.95758277 10 9 Z " fill="#697351" transform="translate(617,357)"/>
<path d="M0 0 C4.30819029 3.32089668 7.64440081 7.40970396 8.3984375 12.90234375 C8.307393 24.692607 8.307393 24.692607 3.5703125 29.4296875 C-1.53346143 33.92405559 -5.65341337 34.35050884 -12.20703125 34.28125 C-17.57200789 33.7410006 -20.71291816 31.38869356 -24.375 27.4375 C-27.93990649 22.09014026 -27.56302489 16.20936023 -27 10 C-25.73648612 5.70709742 -23.34851141 2.95612493 -19.5625 0.625 C-12.69777802 -2.50627669 -7.16113704 -2.18932352 0 0 Z M-17 11 C-18.74022336 14.48044673 -17.88180814 18.30318894 -17 22 C-15.32743384 24.11001159 -15.32743384 24.11001159 -13 25 C-12.071875 25.433125 -12.071875 25.433125 -11.125 25.875 C-7.81754389 26.06955624 -5.77709092 24.69040317 -3 23 C-0.5084096 19.2626144 -0.54206715 17.42668417 -1 13 C-3.06019039 9.20924968 -4.29836992 8.21686748 -8.4375 6.9375 C-12.73331579 7.01286519 -14.05219671 7.96549661 -17 11 Z " fill="#697350" transform="translate(860,369)"/>
<path d="M0 0 C4.28587745 3.79884592 7.19718641 7.3747344 8.234375 13.12109375 C8.52045777 18.8506959 7.716406 23.12269575 4.28515625 27.77734375 C0.1510745 32.24804284 -3.60480514 33.66827976 -9.6875 33.9375 C-14.92545856 33.71445506 -19.10419866 32.74240767 -23.25 29.4375 C-26.70095546 25.56520695 -28.04639973 20.95601323 -28.4140625 15.84375 C-28.02335199 10.11332922 -25.81290427 5.12712623 -21.9375 0.9375 C-14.58069076 -3.16862609 -7.56619133 -3.63759198 0 0 Z M-18.25 11.4375 C-19.38623864 15.67490125 -18.72340706 18.61342104 -16.5625 22.375 C-13.92389977 24.72834615 -12.7779992 25.4375 -9.25 25.4375 C-6.14562976 24.28096991 -3.9749417 23.28851852 -1.8125 20.75 C-0.93840839 17.15651226 -1.12964901 13.9647986 -2.25 10.4375 C-4.64555865 7.77576817 -6.20990277 6.67752244 -9.6875 5.875 C-13.4202773 6.69439014 -16.03169119 8.37166456 -18.25 11.4375 Z " fill="#697351" transform="translate(788.25,369.5625)"/>
<path d="M0 0 C3.44002959 1.94436455 4.69589881 3.21546117 6.125 6.90234375 C7.51662737 12.16173545 7.21211628 17.53964112 7.125 22.9375 C7.11597656 24.00291016 7.10695313 25.06832031 7.09765625 26.16601562 C7.07423539 28.77744161 7.03836937 31.38875087 7 34 C3.7 34 0.4 34 -3 34 C-3.495 21.625 -3.495 21.625 -4 9 C-9.56302692 8.41349019 -9.56302692 8.41349019 -11.8125 10.3125 C-13.87136862 13.23826067 -14.15347944 15.98120512 -14.31640625 19.44921875 C-14.35830078 20.29677734 -14.40019531 21.14433594 -14.44335938 22.01757812 C-14.48267578 22.89865234 -14.52199219 23.77972656 -14.5625 24.6875 C-14.60568359 25.58017578 -14.64886719 26.47285156 -14.69335938 27.39257812 C-14.7993522 29.59487344 -14.90017221 31.79741662 -15 34 C-17.97 34 -20.94 34 -24 34 C-24 22.78 -24 11.56 -24 0 C-21.03 0 -18.06 0 -15 0 C-14.67 0.66 -14.34 1.32 -14 2 C-13.175 1.484375 -12.35 0.96875 -11.5 0.4375 C-7.20506329 -1.32649186 -4.40598647 -1.31725369 0 0 Z " fill="#697351" transform="translate(1835,368)"/>
<path d="M0 0 C3.44002959 1.94436455 4.69589881 3.21546117 6.125 6.90234375 C7.51662737 12.16173545 7.21211628 17.53964112 7.125 22.9375 C7.11597656 24.00291016 7.10695313 25.06832031 7.09765625 26.16601562 C7.07423539 28.77744161 7.03836937 31.38875087 7 34 C3.7 34 0.4 34 -3 34 C-3.495 21.625 -3.495 21.625 -4 9 C-9.56302692 8.41349019 -9.56302692 8.41349019 -11.8125 10.3125 C-13.87136862 13.23826067 -14.15347944 15.98120512 -14.31640625 19.44921875 C-14.35830078 20.29677734 -14.40019531 21.14433594 -14.44335938 22.01757812 C-14.48267578 22.89865234 -14.52199219 23.77972656 -14.5625 24.6875 C-14.60568359 25.58017578 -14.64886719 26.47285156 -14.69335938 27.39257812 C-14.7993522 29.59487344 -14.90017221 31.79741662 -15 34 C-17.97 34 -20.94 34 -24 34 C-24 22.78 -24 11.56 -24 0 C-21.03 0 -18.06 0 -15 0 C-14.67 0.66 -14.34 1.32 -14 2 C-13.175 1.484375 -12.35 0.96875 -11.5 0.4375 C-7.20506329 -1.32649186 -4.40598647 -1.31725369 0 0 Z " fill="#697351" transform="translate(498,368)"/>
<path d="M0 0 C3.3 0 6.6 0 10 0 C10.03738281 1.62550781 10.07476563 3.25101562 10.11328125 4.92578125 C10.17893106 7.05471096 10.24537874 9.18361617 10.3125 11.3125 C10.33505859 12.38435547 10.35761719 13.45621094 10.38085938 14.56054688 C10.41630859 15.58857422 10.45175781 16.61660156 10.48828125 17.67578125 C10.51446533 18.62364502 10.54064941 19.57150879 10.56762695 20.5480957 C11.0668897 23.37931859 11.66120405 24.35924791 14 26 C16.65466049 25.76956136 16.65466049 25.76956136 19 25 C19.9731681 22.0804957 20.1929546 19.94555049 20.31640625 16.89453125 C20.35830078 15.91162109 20.40019531 14.92871094 20.44335938 13.91601562 C20.48267578 12.89185547 20.52199219 11.86769531 20.5625 10.8125 C20.60568359 9.77673828 20.64886719 8.74097656 20.69335938 7.67382812 C20.79944366 5.1160181 20.90150146 2.55811155 21 0 C22.47906892 -0.02689216 23.95827483 -0.04634621 25.4375 -0.0625 C26.26121094 -0.07410156 27.08492187 -0.08570313 27.93359375 -0.09765625 C30 0 30 0 31 1 C32.07072609 23.08683825 32.07072609 23.08683825 27.125 31 C22.64002162 35.22115612 18.68190372 35.4320622 12.6953125 35.3203125 C7.95038489 34.75642255 5.29911149 32.43350234 2.1875 29 C-0.01432651 25.29166062 -0.12128171 21.83070775 -0.09765625 17.578125 C-0.09443359 16.55332031 -0.09121094 15.52851563 -0.08789062 14.47265625 C-0.07951172 13.40917969 -0.07113281 12.34570312 -0.0625 11.25 C-0.05798828 10.17105469 -0.05347656 9.09210938 -0.04882812 7.98046875 C-0.03705742 5.32028875 -0.01912239 2.66013731 0 0 Z " fill="#697351" transform="translate(1095,368)"/>
<path d="M0 0 C3.40563431 2.17380913 4.71751983 3.15255949 6 7 C6.08315752 9.06498892 6.10735878 11.1325789 6.09765625 13.19921875 C6.09443359 14.40771484 6.09121094 15.61621094 6.08789062 16.86132812 C6.07951172 18.12396484 6.07113281 19.38660156 6.0625 20.6875 C6.05798828 21.96173828 6.05347656 23.23597656 6.04882812 24.54882812 C6.03702873 27.69926564 6.02056597 30.84960949 6 34 C3.03 34 0.06 34 -3 34 C-3.01981934 33.34926514 -3.03963867 32.69853027 -3.06005859 32.02807617 C-3.15529299 29.08080849 -3.26497818 26.13425115 -3.375 23.1875 C-3.4059375 22.16333984 -3.436875 21.13917969 -3.46875 20.08398438 C-3.50742188 19.10107422 -3.54609375 18.11816406 -3.5859375 17.10546875 C-3.63306885 15.74651489 -3.63306885 15.74651489 -3.68115234 14.36010742 C-3.86027919 11.73474608 -3.86027919 11.73474608 -6 9 C-8.45672892 8.33314062 -8.45672892 8.33314062 -11 9 C-14.87952176 13.52610872 -14.5474035 18.64859858 -14.6875 24.3125 C-14.72166016 25.24384766 -14.75582031 26.17519531 -14.79101562 27.13476562 C-14.87314888 29.42276341 -14.93825997 31.71136113 -15 34 C-17.97 34 -20.94 34 -24 34 C-24 22.78 -24 11.56 -24 0 C-21.03 0 -18.06 0 -15 0 C-15 0.66 -15 1.32 -15 2 C-13.515 1.2265625 -13.515 1.2265625 -12 0.4375 C-7.5609279 -1.44955494 -4.67740397 -1.13162999 0 0 Z " fill="#697351" transform="translate(1661,368)"/>
<path d="M0 0 C2.97 0 5.94 0 9 0 C9.04898437 1.30195313 9.09796875 2.60390625 9.1484375 3.9453125 C9.22350629 5.67189471 9.29905233 7.39845622 9.375 9.125 C9.4059375 9.9809375 9.436875 10.836875 9.46875 11.71875 C9.68885018 16.4875872 10.19160483 20.51576807 12 25 C13.65 25.33 15.3 25.66 17 26 C19.71584637 22.90159552 20.39265329 20.89272692 20.51171875 16.796875 C20.54716797 15.8171875 20.58261719 14.8375 20.61914062 13.828125 C20.64169922 12.81234375 20.66425781 11.7965625 20.6875 10.75 C20.72166016 9.71875 20.75582031 8.6875 20.79101562 7.625 C20.87338093 5.08344188 20.94256834 2.54222374 21 0 C23.97 0 26.94 0 30 0 C30.11686443 4.02058602 30.18747388 8.04073082 30.25 12.0625 C30.30027344 13.7630957 30.30027344 13.7630957 30.3515625 15.49804688 C30.43048531 22.2656778 30.10977701 26.53042616 26 32 C22.79629318 35.00954277 19.87389452 35.25150188 15.625 35.4375 C10.21050226 35.262368 7.21954017 34.42837639 3 31 C-0.67606267 24.69328176 -0.35311012 18.71770651 -0.1875 11.5625 C-0.17396484 10.44939453 -0.16042969 9.33628906 -0.14648438 8.18945312 C-0.11132997 5.45912788 -0.06212106 2.72982256 0 0 Z " fill="#697351" transform="translate(1259,368)"/>
<path d="M0 0 C8.58 0 17.16 0 26 0 C26 2.97 26 5.94 26 9 C23.36 9 20.72 9 18 9 C18 20.88 18 32.76 18 45 C14.7 45 11.4 45 8 45 C8 33.12 8 21.24 8 9 C5.36 9 2.72 9 0 9 C0 6.03 0 3.06 0 0 Z " fill="#6A7352" transform="translate(1057,357)"/>
<path d="M0 0 C2.37507418 1.46269812 4.00800062 3.00800062 6 5 C4.35 6.98 2.7 8.96 1 11 C-1.97 10.01 -4.94 9.02 -8 8 C-8 8.99 -8 9.98 -8 11 C-7.13375 11.2475 -6.2675 11.495 -5.375 11.75 C-0.46538789 13.56837486 3.07561985 15.61342978 6 20 C6.42733494 25.29895331 6.51322472 28.73394141 3 33 C-1.64599737 35.90630672 -6.7005282 35.65765451 -12 35 C-14.46325185 33.92086109 -15.9424654 32.77948939 -18 31 C-17.40072174 27.64404172 -16.15377564 25.62198774 -14 23 C-13.278125 23.309375 -12.55625 23.61875 -11.8125 23.9375 C-9.19692691 24.92560539 -6.74881018 25.5287754 -4 26 C-4 25.01 -4 24.02 -4 23 C-4.90492188 22.54560547 -4.90492188 22.54560547 -5.828125 22.08203125 C-14.52221923 17.52464315 -14.52221923 17.52464315 -17 13 C-17.55567433 9.60421244 -17.75599645 7.28981074 -15.9765625 4.25390625 C-11.39716308 -1.53278939 -6.76254486 -1.73663992 0 0 Z " fill="#697350" transform="translate(674,368)"/>
<path d="M0 0 C2.97 0 5.94 0 9 0 C9 15.51 9 31.02 9 47 C6.03 47 3.06 47 0 47 C0 31.49 0 15.98 0 0 Z " fill="#697351" transform="translate(810,355)"/>
<path d="M0 0 C2.97 0 5.94 0 9 0 C9 15.51 9 31.02 9 47 C6.03 47 3.06 47 0 47 C0 31.49 0 15.98 0 0 Z " fill="#697351" transform="translate(424,355)"/>
<path d="M0 0 C3.3 0 6.6 0 10 0 C10 11.22 10 22.44 10 34 C6.7 34 3.4 34 0 34 C0 22.78 0 11.56 0 0 Z " fill="#697351" transform="translate(694,368)"/>
<path d="M0 0 C2.97 0 5.94 0 9 0 C9 11.22 9 22.44 9 34 C6.03 34 3.06 34 0 34 C0 22.78 0 11.56 0 0 Z " fill="#697351" transform="translate(933,368)"/>
<path d="M0 0 C2.97 0 5.94 0 9 0 C9 11.22 9 22.44 9 34 C6.03 34 3.06 34 0 34 C0 22.78 0 11.56 0 0 Z " fill="#697351" transform="translate(520,368)"/>
<path d="M0 0 C2.97 0 5.94 0 9 0 C9 11.22 9 22.44 9 34 C6.03 34 3.06 34 0 34 C0 22.78 0 11.56 0 0 Z " fill="#697351" transform="translate(449,368)"/>
<path d="M0 0 C0.94552734 0.16242188 0.94552734 0.16242188 1.91015625 0.328125 C4.06518156 3.56066296 4.3787176 4.57963423 3.91015625 8.328125 C2.78515625 10.140625 2.78515625 10.140625 0.91015625 11.328125 C-2.08984375 11.765625 -2.08984375 11.765625 -5.08984375 11.328125 C-7.02734375 9.703125 -7.02734375 9.703125 -8.08984375 7.328125 C-7.55398259 0.49589519 -6.69947653 0.24317519 0 0 Z " fill="#67704E" transform="translate(455.08984375,354.671875)"/>
<path d="M0 0 C3.625 0.3125 3.625 0.3125 5.625 2 C6.88826211 4.92129364 6.64516252 6.33048647 5.625 9.3125 C3.625 11.3125 3.625 11.3125 0.6875 11.6875 C-2.375 11.3125 -2.375 11.3125 -4.3125 9.6875 C-5.72668205 6.52638719 -5.25377792 4.60791719 -4.375 1.3125 C-3.375 0.3125 -3.375 0.3125 0 0 Z " fill="#697351" transform="translate(698.375,354.6875)"/>
<path d="M0 0 C3.5 0.25 3.5 0.25 5.5 2.25 C5.75 5.75 5.75 5.75 5.5 9.25 C3.5 11.25 3.5 11.25 0.5625 11.5625 C-2.5 11.25 -2.5 11.25 -4.375 10.125 C-6.00531294 7.40781176 -5.83015665 5.35347254 -5.5 2.25 C-3.5 0.25 -3.5 0.25 0 0 Z " fill="#6A7350" transform="translate(524.5,354.75)"/>
<path d="M0 0 C3.5 0.25 3.5 0.25 5.5 2.25 C5.83015665 5.35347254 6.00531294 7.40781176 4.375 10.125 C1.63083761 11.77149743 -0.3694571 11.64964378 -3.5 11.25 C-5.80163882 7.79754176 -5.84490322 6.30261287 -5.5 2.25 C-3.5 0.25 -3.5 0.25 0 0 Z " fill="#6A7350" transform="translate(937.5,354.75)"/>
</svg>
